<svg xmlns="http://www.w3.org/2000/svg" xmlns:xlink="http://www.w3.org/1999/xlink" viewBox="0 0 1440 1084.33"><defs><style>.cls-1{fill:#a4def4;}.cls-2{fill:#46c7f0;}.cls-3{isolation:isolate;}.cls-30,.cls-4{fill:#99daed;}.cls-4{opacity:0.25;}.cls-5{fill:#1a1a1a;}.cls-10,.cls-16,.cls-22,.cls-33,.cls-44,.cls-53,.cls-59,.cls-6,.cls-60,.cls-61,.cls-63,.cls-64,.cls-67,.cls-68,.cls-69,.cls-70,.cls-80,.cls-9{fill:none;}.cls-6{stroke:#45474d;}.cls-10,.cls-16,.cls-25,.cls-33,.cls-37,.cls-44,.cls-53,.cls-55,.cls-59,.cls-6,.cls-60,.cls-61,.cls-63,.cls-64,.cls-67,.cls-68,.cls-69,.cls-70,.cls-80,.cls-9{stroke-miterlimit:10;}.cls-10,.cls-16,.cls-25,.cls-6,.cls-9{stroke-width:0.47px;}.cls-7{fill:#fb7541;}.cls-8{fill:#434548;}.cls-25,.cls-37,.cls-9{stroke:#00588e;}.cls-10{stroke:#e9e8e9;}.cls-10,.cls-22,.cls-44{stroke-linecap:round;}.cls-11{fill:#ddd;}.cls-12{fill:#03556e;}.cls-13{fill:#dadadb;}.cls-14{fill:#103b60;}.cls-15{fill:#065368;}.cls-16{stroke:#013e4e;}.cls-17{fill:#05556e;}.cls-18{fill:#35363a;}.cls-19{fill:#fa4e0e;}.cls-20{fill:#012931;}.cls-21{fill:#585a5f;}.cls-22,.cls-33,.cls-53,.cls-61,.cls-70{stroke:#fff;}.cls-22{stroke-linejoin:round;stroke-width:0.94px;}.cls-23{fill:#00588e;}.cls-24,.cls-41,.cls-55{fill:#fff;}.cls-25,.cls-37{fill:#00588c;}.cls-26{fill:#2b2929;}.cls-27{fill:#e3e3e3;}.cls-28{fill:#45474d;}.cls-29{fill:#0a2e47;}.cls-31{fill:#13b5ea;}.cls-32{fill:#0874bb;}.cls-33{stroke-width:0.47px;}.cls-34{fill:#191919;}.cls-35{fill:#de9b9c;}.cls-36{fill:#00a3d3;}.cls-37{stroke-width:0.4px;}.cls-38{fill:#b2e3f2;}.cls-39{fill:#1474bb;}.cls-40{fill:#e5f6fb;}.cls-41{font-size:51.39px;font-family:National2-BoldItalic, National 2;font-weight:700;font-style:italic;}.cls-42{fill:#2d3f50;}.cls-43{fill:#22323f;}.cls-44{stroke:#19b4e9;stroke-width:1.66px;}.cls-45{fill:#19b4e9;}.cls-46{fill:#c5e8f2;}.cls-47{fill:#66c7e4;}.cls-48{fill:#d5d7db;}.cls-49{fill:#89d5e9;}.cls-50{fill:#023f52;}.cls-51{fill:#6aa42f;}.cls-52{fill:#83c83e;}.cls-53{stroke-width:1.7px;}.cls-54{fill:#a4c8d8;}.cls-55{stroke:#c5e8f2;stroke-width:0.75px;}.cls-56{fill:#cccccb;}.cls-57{fill:#557a38;}.cls-58{clip-path:url(#clip-path);}.cls-59,.cls-60,.cls-68,.cls-69{stroke:#00a5d7;}.cls-59,.cls-64{stroke-width:0.33px;}.cls-60,.cls-61,.cls-63{stroke-width:0.67px;}.cls-62{fill:#e1f3f9;mix-blend-mode:multiply;}.cls-63{stroke:#a4c8d8;}.cls-64,.cls-67{stroke:#ffb73a;}.cls-65{fill:#5ebd6c;}.cls-66{fill:#333;opacity:0.5;mix-blend-mode:overlay;}.cls-67,.cls-68{stroke-width:0.3px;}.cls-69,.cls-70{stroke-width:0.61px;}.cls-71{clip-path:url(#clip-path-2);}.cls-72{fill:#f7956b;}.cls-73{fill:#2169a0;}.cls-74{fill:#232020;}.cls-75{fill:#d6eff9;}.cls-76{fill:#4072a5;}.cls-77{fill:#f37134;}.cls-78{fill:#1a4f83;}.cls-79{fill:#0f93bb;}.cls-80{stroke:#0f93bb;stroke-width:1.87px;}</style><clipPath id="clip-path"><path class="cls-1" d="M672.83,781.8a254,254,0,0,1-119-57.92l-120,138.33a436.35,436.35,0,0,0,204.25,99.34,441.86,441.86,0,0,0,75.84,8l3-183.09A256.2,256.2,0,0,1,672.83,781.8Z"/></clipPath><clipPath id="clip-path-2"><path class="cls-2" d="M944.22,407.15l160.31-89.07A438,438,0,0,0,877.84,121.46L812.27,292.81A254.92,254.92,0,0,1,944.22,407.15Z"/></clipPath></defs><title>c13-nine-ways-to-get-employees-outlines</title><g class="cls-3"><g id="Layer_1" data-name="Layer 1"><circle class="cls-4" cx="717.72" cy="528.67" r="268.22"/><path class="cls-5" d="M702.41,557.67l-17.7,5.24,0-58.42,19.83,12.86V554.8A3,3,0,0,1,702.41,557.67Z"/><path class="cls-5" d="M704.25,554.73,686.55,560V501.55l19.84,12.86v37.45A3,3,0,0,1,704.25,554.73Z"/><line class="cls-6" x1="686.93" y1="518.08" x2="706.4" y2="514.41"/><path class="cls-6" d="M704.56,517.35V554.8a3,3,0,0,1-2.15,2.87l-17.7,5.24"/><polygon class="cls-7" points="635.71 549.34 628.23 549.34 626.6 546.57 628.23 534.9 635.71 534.9 635.71 549.34"/><path class="cls-7" d="M635.23,552.62l-7-3,1.53-4.48,10,4.49a.6.6,0,0,1,.13,1l-2,1.64A2.65,2.65,0,0,1,635.23,552.62Z"/><path class="cls-7" d="M638.32,544.63a6,6,0,0,0-2.51-3.25l-3.11-4.87,3.78-2.83,4.09,6.81a3.44,3.44,0,0,1-.88,4.53h0A.88.88,0,0,1,638.32,544.63Z"/><ellipse class="cls-7" cx="634.83" cy="535.74" rx="2.53" ry="2.73"/><ellipse class="cls-7" cx="628.88" cy="547.27" rx="2.28" ry="2.47"/><rect class="cls-7" x="628.23" y="529.66" width="8.48" height="5.28"/><circle class="cls-8" cx="636.57" cy="472.17" r="11.4"/><path class="cls-8" d="M647.84,473.3l-22.71-2-.46,59.26c.15,3.93,13.68,4.13,14.16.71Z"/><circle class="cls-8" cx="636.93" cy="469.72" r="11.4"/><path class="cls-8" d="M659.11,411.6l-2.27-.38a20.94,20.94,0,0,0-24,16.79l-7.23,39.83,22.5,3.75Z"/><polygon class="cls-7" points="700.75 549.75 705.47 549.68 707.1 546.9 707.14 535.23 698.74 534.68 700.75 549.75"/><path class="cls-7" d="M703.76,553.27l3.39-6.83-4-2.46-4.8,9.91a.61.61,0,0,0,.56.88l2.57,0A2.65,2.65,0,0,0,703.76,553.27Z"/><path class="cls-7" d="M697.05,545a5.94,5.94,0,0,1,2.52-3.26l3.11-4.86L698.9,534l-4.09,6.82a3.45,3.45,0,0,0,.88,4.53h0A.89.89,0,0,0,697.05,545Z"/><ellipse class="cls-7" cx="700.54" cy="536.07" rx="2.53" ry="2.73"/><rect class="cls-7" x="698.66" y="529.99" width="8.48" height="5.28" transform="translate(1405.81 1065.27) rotate(-180)"/><circle class="cls-8" cx="697.08" cy="472.17" r="11.4"/><path class="cls-8" d="M685.81,473.3l22.72-2,.46,59.26c-.15,3.93-13.68,4.13-14.16.71Z"/><circle class="cls-8" cx="696.73" cy="469.72" r="11.4"/><path class="cls-8" d="M674.55,411.6l2.27-.38a20.93,20.93,0,0,1,24,16.79l7.23,39.83-22.5,3.75Z"/><ellipse class="cls-9" cx="655.13" cy="511.83" rx="2.25" ry="13.11" transform="translate(-170.05 613.01) rotate(-44.99)"/><path class="cls-5" d="M649.82,668.49h0a7.62,7.62,0,0,1-7.35,7.62l-10.89.39a5.47,5.47,0,0,0-4.29,5.34h32.42V667h-8.39A1.5,1.5,0,0,0,649.82,668.49Z"/><line class="cls-10" x1="634.66" y1="676.38" x2="634.66" y2="681.68"/><line class="cls-10" x1="638.07" y1="675.91" x2="638.07" y2="678.27"/><line class="cls-10" x1="640.34" y1="675.91" x2="640.34" y2="678.27"/><line class="cls-10" x1="642.61" y1="675.91" x2="642.61" y2="678.27"/><line class="cls-10" x1="644.88" y1="675.44" x2="644.87" y2="677.8"/><path class="cls-5" d="M650.93,671.28,649,672.6v-2.88a1.08,1.08,0,0,1,1.08-1.09h.81Z"/><rect class="cls-11" x="627.29" y="681.68" width="32.53" height="2.27"/><circle class="cls-11" cx="654.71" cy="675.82" r="2.27"/><path class="cls-12" d="M643.74,499.54V488.82H690v10.71c0,6-17.29,22.54-23.15,22.54C659.27,522.08,643.74,505.53,643.74,499.54Z"/><path class="cls-13" d="M682.73,411.77l-7.85-2.4c-4.49-3.78-20.62.59-24.57,3.85-6.39,30.46-5.61,62.73-2,83.63H685C687.51,477,687.6,444,682.73,411.77Z"/><path class="cls-14" d="M671.28,600.7c-2.74-38.23-2.33-87.22-2.09-94.4v-9.37l16.95-.1a4.69,4.69,0,0,1,4.26,5.23l.49,32.64c.41,13.41-1.56,52.27-3.39,65.56l.12,1.37Z"/><path class="cls-12" d="M646.78,599.06l-2,18.65a171.41,171.41,0,0,0,1.36,21.72,6.36,6.36,0,0,1-.57,3.65l-.41.84a6.33,6.33,0,0,0,.31,6.07h0l.33.57c2.3,4.07,2.52,4.57.81,8.92s-1.3,4.84.81,11.18l14.36-.12,1.29-71Z"/><path class="cls-12" d="M646.78,599.06c-1.84-13.4-4.15-50.46-3.73-64l.5-26.28a74.58,74.58,0,0,0-.38-10.95l22.43.56-.67.46L663.1,599.52Z"/><ellipse class="cls-14" cx="677.96" cy="511.83" rx="13.11" ry="2.25" transform="translate(-163.37 629.16) rotate(-44.99)"/><path class="cls-15" d="M676.55,668.61h8.19a.84.84,0,0,1,.84.84V672a0,0,0,0,1,0,0h-9.88a0,0,0,0,1,0,0v-2.56A.84.84,0,0,1,676.55,668.61Z"/><path class="cls-5" d="M687.68,678h0a6.5,6.5,0,0,1-1.91-4.6v-2.13a.86.86,0,0,0-.86-.87h-8.52a.86.86,0,0,0-.86.86v2.14a6.49,6.49,0,0,1-1.9,4.6h0a11,11,0,0,0-3.22,7.77h20.5A11,11,0,0,0,687.68,678Z"/><path class="cls-5" d="M678.76,677.46h3.78a8.32,8.32,0,0,1,8.32,8.32v0a0,0,0,0,1,0,0H670.44a0,0,0,0,1,0,0v0a8.32,8.32,0,0,1,8.32-8.32Z"/><path class="cls-11" d="M690.54,683.52H670.75a8.58,8.58,0,0,0-.31,2.27h20.42A8.09,8.09,0,0,0,690.54,683.52Z"/><line class="cls-10" x1="678.38" y1="675.23" x2="682.92" y2="675.23"/><line class="cls-10" x1="678.38" y1="673.34" x2="682.92" y2="673.34"/><line class="cls-16" x1="675.57" y1="670.69" x2="685.4" y2="670.69"/><path class="cls-7" d="M673.5,399.84l0,12.65a6.37,6.37,0,0,1-6.38,6.36h0a6.37,6.37,0,0,1-6.36-6.38l0-12.65"/><ellipse class="cls-7" cx="658.49" cy="389.57" rx="1.64" ry="3.49"/><ellipse class="cls-7" cx="674.89" cy="390.8" rx="1.64" ry="3.49"/><path class="cls-17" d="M657.8,374.26c2.36-2.49,4.64-3.29,8.08-3.36s5.12,4.06.46,4.78a6.94,6.94,0,0,0-5.84,7.65l.12,4.73c-.89-.4-2.13-2.63-3.14-1.57,0,0-2.35-9,.32-12.23Z"/><path class="cls-18" d="M669.09,372.76a3.9,3.9,0,0,0-1.48-.26c-3.35.07-5.08-1.39-7.38,1-3.53,3.53-1.57,3.53-2,7.45-.6,5.95-.5,4.9,1,5.85.21.19.43.41.63.61a1.05,1.05,0,0,1,.76.19l-.11-4.31a6.94,6.94,0,0,1,5.84-7.65C668.83,375.3,669.52,373.93,669.09,372.76Z"/><path class="cls-7" d="M675.2,391.56a14.71,14.71,0,0,1-.89-4.92v-1.17l.71-2.66a6.36,6.36,0,0,0-6.31-7.18h-3.8c-6.64-.52-5.78,9.84-5.78,9.84v1.17a15,15,0,0,1-.89,4.92c-.35.91.28,4.36.28,5.39,0,4.76,4.92,8.61,8.2,8.62s8.61-3.86,8.61-8.61C675.33,395.93,675.55,392.48,675.2,391.56Z"/><path class="cls-19" d="M666.71,402.43c-1.92,0-5.31-1.42-6.09-4.56-.23-.93-1.18.78-2.06-.15.49,4.4,5.05,7.84,8.16,7.85s8.09-3.49,8.57-7.92c-.56.78-.95-1.58-1.72-1A7.54,7.54,0,0,1,666.71,402.43Z"/><path class="cls-18" d="M664.15,370.79a5,5,0,0,1-3.82-.31,1.28,1.28,0,0,0-1.9,1.31c1,7,9,6.75,14,5.69,1.88-.41,1.77,3.38,1.48,5.86l.15,4.8c.86-.61,1.75-.1,2.46,1.64,0,0,.17-6.18.55-11.11a7.31,7.31,0,0,0-3.75-7C671.69,370.71,667.29,370,664.15,370.79Z"/><path class="cls-18" d="M673.92,383.34l.15,4.8c.86-.61,1.75-.1,2.46,1.64,0,0,.17-6.18.55-11.11a7.33,7.33,0,0,0-.39-3,11.36,11.36,0,0,1-3.84,1.81C674.3,377.67,674.18,381.06,673.92,383.34Z"/><path class="cls-19" d="M660.58,388.27h4.74l.39-.8h2.35l.39.8h4.45a1.87,1.87,0,0,0-1.71-2h-8.9A1.87,1.87,0,0,0,660.58,388.27Z"/><path class="cls-20" d="M664.41,391.47h-3.95a1.31,1.31,0,0,1-1.29-1.08l-1-5.67h7.54v5.45A1.31,1.31,0,0,1,664.41,391.47Z"/><path class="cls-20" d="M669,391.48h4a1.31,1.31,0,0,0,1.29-1.08l1-5.67h-7.54l0,5.44A1.31,1.31,0,0,0,669,391.48Z"/><rect class="cls-20" x="665.73" y="384.73" width="2.38" height="2.38" transform="translate(0.83 -1.43) rotate(0.12)"/><path class="cls-20" d="M674.07,384.74h1.14a.45.45,0,0,1,.45.45v.68a.45.45,0,0,1-.45.45h-1.14a0,0,0,0,1,0,0v-1.59A0,0,0,0,1,674.07,384.74Z" transform="translate(0.83 -1.45) rotate(0.12)"/><path class="cls-20" d="M657.79,384.71h1.14a.45.45,0,0,1,.45.45v.68a.45.45,0,0,1-.45.45h-1.14a0,0,0,0,1,0,0v-1.59A0,0,0,0,1,657.79,384.71Z" transform="translate(1316.33 772.42) rotate(-179.88)"/><path class="cls-17" d="M660.79,386.11h3.58v3.36a1,1,0,0,1-1,1H662Z"/><path class="cls-17" d="M669.53,386.14h4l-.4,3.37a1,1,0,0,1-1,1h-1.38Z"/><path class="cls-14" d="M671.28,600.7l-.19,4.71c-.5,11.77-1.05,22.94.23,34.65h0c0,.12,0,.32,0,.57a16.67,16.67,0,0,1-.91,4.67,7.37,7.37,0,0,0,.29,5.42l1.13,2.45a7.36,7.36,0,0,1,.6,4.16l-.67,4.5a7.27,7.27,0,0,0,.08,2.59l1.37,6.59h13.27c2-6.12,2.51-6.36.94-10.42a10.8,10.8,0,0,1,.6-9.09c.13-.23.26-.46.4-.69h0a6.26,6.26,0,0,0,.3-6l-.4-.84a6.18,6.18,0,0,1-.56-3.62,170.7,170.7,0,0,0,1.35-21.55l-1.49-17.15Z"/><path class="cls-21" d="M640.16,497.52c3.12,1.74,11.44,3.62,19.43,4.41l1-92.05a2,2,0,0,0-2.36-2.06l-8.95,1.47C647.17,409.62,640.16,497.52,640.16,497.52Z"/><path class="cls-21" d="M691.53,498.22c-3.12,1.73-9.09,2.92-17.07,3.71l-1.06-92.05a2.06,2.06,0,0,1,2.37-2.06l8,1.47c2.15.33,2.26,2.16,2.48,4.33C690,452.33,691.53,498.22,691.53,498.22Z"/><path class="cls-14" d="M680.63,406.37l-5.1-.19v-.12a4,4,0,0,0-2-3.46v11.75c3.66-2.68,7.45-3.66,11.38-2.75v-1.23A4,4,0,0,0,680.63,406.37Z"/><path class="cls-14" d="M653.55,406.13l5.1-.18v-.13a4,4,0,0,1,2-3.45v11.75c-3.65-2.68-7.44-3.67-11.37-2.75v-1.23A4,4,0,0,1,653.55,406.13Z"/><path class="cls-5" d="M692.21,508.33a1.77,1.77,0,0,1-2.67-.73L649.39,413a1.83,1.83,0,0,1,.8-2.3c1.59-.88,2.64-1.51,3.77-1.53a2.57,2.57,0,0,1,2.38,1.61l39.07,93.54a1.78,1.78,0,0,1-.59,2.12Z"/><polygon class="cls-22" points="684.1 478.59 686.2 482.46 680.56 485.58 678.46 481.71 684.1 478.59"/><path class="cls-23" d="M602.82,485.34h0a6.6,6.6,0,0,1-7.47-5.34c-2-11.23-2.1-27.46-2.67-43.54h0a8.29,8.29,0,0,1,9.47,7.19c3.42,13.94,6.07,26.1,6.31,34.94A6.62,6.62,0,0,1,602.82,485.34Z"/><path class="cls-23" d="M571.57,439.11l-14.5,33.13-13.31,3.18c.33-1.63,4.64-23.55,9.79-32,4.44-7.27,8.67-4.53,18-4.32Z"/><path class="cls-24" d="M592.32,436l-15-1.44-11.07,1.92a30.42,30.42,0,0,0-8.89,1.83,3.91,3.91,0,0,0-2.67,4.51l7.78,37a19,19,0,0,1,.34,3.09h31.24c0-.36.1-.73.17-1.09l4.92-37.39A7,7,0,0,0,592.32,436Z"/><path class="cls-7" d="M566.56,681h6.9l.28-25.41-6.38-2.28-.58,15.82a6.76,6.76,0,0,1-4.64,5.56l-14.52,4.64,2,1.67Z"/><polygon class="cls-7" points="568.64 672.97 568.55 673.33 551.17 678.43 549.6 680.95 566.56 680.95 573.46 680.95 572.16 675.72 568.64 672.97"/><path class="cls-23" d="M568.13,677.76l-1.84.23c-2,.25-16.89.65-16.89.65-2.86.18-3.76,1.14-3.76,2.31h27.82l.28-11.16C567.8,672.56,570.54,677.46,568.13,677.76Z"/><path class="cls-25" d="M584.47,668.64h4a2.09,2.09,0,0,1,1.81,2l1.89,6.37H580.78l1.88-6.37A2.09,2.09,0,0,1,584.47,668.64Z"/><path class="cls-7" d="M590.94,674.11a15.7,15.7,0,0,1-1.37-5.24v-12.1h-6.16v12.1a15.7,15.7,0,0,1-1.37,5.24l-1.5,4.53a3.38,3.38,0,0,0-.2,1.14v.1a1.51,1.51,0,0,0,1.51,1.51h9.29a1.51,1.51,0,0,0,1.5-1.51v-.1a3.15,3.15,0,0,0-.2-1.14Z"/><path class="cls-23" d="M593.21,680v-.11a3.78,3.78,0,0,0-.22-1.25l-1.29-3.88a6.57,6.57,0,0,1-10.42,0L580,678.67a3.55,3.55,0,0,0-.23,1.25V680c.05.88,1.1,1.55,2.35,2a12.41,12.41,0,0,0,8.86,0C592.28,681.6,593.33,680.92,593.21,680Z"/><path class="cls-5" d="M584.79,528.05l17.13-16.24c-1.56-9.6-3.27-17.24-7.29-21.6H561.37c-4.25,3.1-5.1,12.13-5.87,19.82l16,17.53A9.32,9.32,0,0,0,584.79,528.05Z"/><path class="cls-5" d="M577.14,505.12v83.56l-.38,69.44H566.65c-4.46-35.71-5.8-62.66-2.16-75.85-6.68-13.95-14.5-57.6-7.76-77.15Z"/><circle class="cls-5" cx="570.67" cy="582.39" r="6.25"/><path class="cls-26" d="M580,530.27v57.46l.38,69.44h10.11c4.45-35.71,5.79-62.66,2.16-75.85,6.67-13.94,14.49-57.82,7.75-77.37Z"/><circle class="cls-26" cx="586.41" cy="582.39" r="6.25"/><path class="cls-7" d="M550,512.76l2.41-31.65-8.35-2.55,1,36.57a14.64,14.64,0,0,0,.52,3.48l1.6,5.85a3.12,3.12,0,0,0,1.55,1.93l1.65.88a1.32,1.32,0,0,0,1.93-1.35Z"/><path class="cls-7" d="M552.41,523h0a1.16,1.16,0,0,0,.8-1.44l-3.41-9.1-.48,6.29L551,522.4A1.15,1.15,0,0,0,552.41,523Z"/><rect class="cls-7" x="573.42" y="423.82" width="8.67" height="11.12"/><path class="cls-19" d="M582.09,423.82h-8.67v6.08a10.88,10.88,0,0,0,2,.19c3,0,5.51-1.13,6.66-2.75Z"/><path class="cls-7" d="M575.66,445.06l-6.09-10.7h4.62l3.48-1.25,3.64,1.48h4l-5.78,10.51A2.3,2.3,0,0,1,575.66,445.06Z"/><path class="cls-7" d="M601.2,515.18l-2.32-30.46,8-2.46-1,35.21a14,14,0,0,1-.5,3.34l-1.54,5.64a3,3,0,0,1-1.49,1.85l-1.6.85a1.27,1.27,0,0,1-1.85-1.3Z"/><path class="cls-7" d="M598.88,525.06h0a1.12,1.12,0,0,1-.77-1.39l3.28-8.76.47,6.06-1.66,3.49A1.11,1.11,0,0,1,598.88,525.06Z"/><path class="cls-23" d="M548.29,486.84h0a5.8,5.8,0,0,1-5.68-6.95l2.15-8.9,12.31,1.25L554,482.18A5.81,5.81,0,0,1,548.29,486.84Z"/><path class="cls-23" d="M587.65,436.09l-5.52,8.22-2.32-1.65,5.52-8.22A4.65,4.65,0,0,1,587.65,436.09Z"/><path class="cls-23" d="M568,435.75l5.76,8.56,2.32-1.65-5.76-8.56A2.56,2.56,0,0,0,568,435.75Z"/><rect class="cls-27" x="562.9" y="482.81" width="31.26" height="7.4"/><path class="cls-28" d="M577.27,404a12.39,12.39,0,0,0-12.39-12.39c-5.32,0-13.47,3.2-13.33,16.54a4.84,4.84,0,0,1-4.65,4.89h0a4.85,4.85,0,0,0-4.59,4.08h0a7.13,7.13,0,0,1-5.69,5.87l-.83.16a7.1,7.1,0,0,0-5,3.71c-1.73,3.41-1.3,6.24-6.31,8.53a8.45,8.45,0,0,0-1.39.82h0l21.95-.1c1.41-11.17,14.17-3.75,18-13.91,1.38-3.69,4.2-5.55,7.31-7.08A12.37,12.37,0,0,0,577.27,404Z"/><path class="cls-5" d="M564.88,391.65c-5.32,0-13.47,3.2-13.33,16.54a4.84,4.84,0,0,1-4.65,4.89h0a4.85,4.85,0,0,0-4.59,4.08,7.19,7.19,0,0,1-.46,1.62,47.91,47.91,0,0,0,23.27,0,17,17,0,0,1,5.21-3.62,12.39,12.39,0,0,0-5.45-23.51Z"/><path class="cls-7" d="M577.53,402.29h-.42c-4.63,0-8.39-.14-8.39,4.29v8.07a14.5,14.5,0,0,0,5.82,11.6c1.07.81,4.68.8,5.72,0a14.44,14.44,0,0,0,5.67-11.47v-8.2C585.93,402.15,582.17,402.29,577.53,402.29Z"/><ellipse class="cls-7" cx="568.79" cy="416.45" rx="1.85" ry="1.92"/><ellipse class="cls-7" cx="585.07" cy="416.45" rx="1.85" ry="1.92"/><path class="cls-28" d="M588.08,409.17c0-7-3.59-12.6-10.76-12.6-6.81,0-10.76,5.64-10.76,12.6a14,14,0,0,0,2.15,7.55v-7.83h1.5a5.06,5.06,0,0,0,4.31-2.43c1-1.7,1.4-3.54,4.05-3.51,1.79,0,3.19,1.67,3.8,3.73a3,3,0,0,0,2.84,2.21h.63v8A14,14,0,0,0,588.08,409.17Z"/><path class="cls-29" d="M637.85,290,577.94,116.65a439.87,439.87,0,0,0-232.85,189L502.37,400A256.07,256.07,0,0,1,637.85,290Z"/><path class="cls-30" d="M769.69,280.7a257.16,257.16,0,0,1,42.58,12.11l65.57-171.35a440,440,0,0,0-299.9-4.81L637.85,290A254,254,0,0,1,769.69,280.7Z"/><path class="cls-31" d="M971.84,579.5l179.93,34.78a436.65,436.65,0,0,0-47.24-296.2L944.22,407.15A254.14,254.14,0,0,1,971.84,579.5Z"/><path class="cls-29" d="M971.84,579.5l0,.18a254.16,254.16,0,0,1-89.76,149.71L997.46,871.61a436.69,436.69,0,0,0,154.31-257.33Z"/><path class="cls-32" d="M716.93,786.43l-3,183.09a438,438,0,0,0,283.54-97.91L882.05,729.39A254.92,254.92,0,0,1,716.93,786.43Z"/><path class="cls-17" d="M469.16,571.23l-181,28.86A439.83,439.83,0,0,0,433.83,862.21l120-138.33A256,256,0,0,1,469.16,571.23Z"/><path class="cls-2" d="M470.71,482.82A254.53,254.53,0,0,1,502.37,400L345.09,305.67A440.39,440.39,0,0,0,288.2,600.09l181-28.86A254.61,254.61,0,0,1,470.71,482.82Z"/><rect class="cls-30" x="591.1" y="19.6" width="269.67" height="57.57" rx="10.24" ry="10.24"/><rect class="cls-31" x="1167.46" y="429.53" width="269.67" height="57.57" rx="10.24" ry="10.24"/><rect class="cls-29" x="1112.05" y="750.2" width="269.67" height="57.57" rx="10.24" ry="10.24"/><rect class="cls-30" x="306.39" y="956.71" width="269.67" height="57.57" rx="10.24" ry="10.24"/><rect class="cls-29" x="147.38" y="100.67" width="269.67" height="100.71" rx="10.24" ry="10.24"/><rect class="cls-2" x="-0.62" y="406.05" width="269.67" height="100.71" rx="10.24" ry="10.24"/><rect class="cls-17" x="58.88" y="748.18" width="269.67" height="100.71" rx="10.24" ry="10.24"/><rect class="cls-2" x="1023.31" y="101.41" width="269.67" height="98.01" rx="10.24" ry="10.24"/><rect class="cls-32" x="870.19" y="952.85" width="315" height="98.01" rx="10.24" ry="10.24"/><path class="cls-24" d="M635.68,52.64h-7l-1.38,4h-4.74l7-19.17H635l7,19.17h-4.91Zm-5.83-3.56h4.6l-2.27-6.63h-.06Z"/><path class="cls-24" d="M647.33,52.13a2.29,2.29,0,0,0,2.38,1.77c1.21,0,2-.45,2-1.37,0-2.53-7.83-.26-7.83-5.89,0-3.18,2.75-4.88,6.14-4.88s5.6,1.53,6,4.22l-3.93.46A1.86,1.86,0,0,0,650,44.78c-1.09,0-1.75.51-1.75,1.38,0,2.55,7.89.17,7.89,6,0,3.15-2.7,4.85-6.48,4.85-3.16,0-5.69-1.3-6.32-4Z"/><path class="cls-24" d="M673.94,56.63h-5.31l-3.76-6H664v6h-4.74V35.91H664V47.22h.95l3.41-5.11h5.17L669,48.82Z"/><path class="cls-24" d="M689.66,41.76c3.62,0,5.92,2,6.2,4.94l-4.07.89c-.12-1.32-.72-2.35-2-2.35-1.75,0-2.53,1.66-2.53,4.13s.84,4.1,2.53,4.1c1.18,0,2-.86,2.1-2.32l4.1,1.26C695.4,55.25,693,57,689.78,57c-4.42,0-7.26-2.87-7.26-7.61S685.36,41.76,689.66,41.76Z"/><path class="cls-24" d="M705.31,57c-4.37,0-7.32-2.76-7.32-7.61s3-7.61,7.32-7.61,7.29,2.73,7.29,7.61S709.64,57,705.31,57Zm0-11.77c-1.81,0-2.62,1.49-2.62,4.16s.81,4.13,2.62,4.13,2.58-1.46,2.58-4.13S707.08,45.21,705.31,45.21Z"/><path class="cls-24" d="M722.5,56.2a6.18,6.18,0,0,1-3.08.72c-2,0-4-1-4-3.91V35.91h4.73V52c0,.86.35,1.24,1,1.24a1.81,1.81,0,0,0,1.09-.38Z"/><path class="cls-24" d="M732.05,56.2a6.14,6.14,0,0,1-3.07.72c-2,0-4-1-4-3.91V35.91h4.74V52c0,.86.34,1.24,1,1.24a1.78,1.78,0,0,0,1.09-.38Z"/><path class="cls-24" d="M743.62,51.61l3.84,1.32c-.88,2.81-3.5,4-6.31,4-4.36,0-7.17-2.79-7.17-7.47s2.75-7.75,7.29-7.75c4.24,0,6.31,2.93,6.31,6.52a8.17,8.17,0,0,1-.26,1.92h-8.81c0,2.07,1.12,3.27,2.73,3.27A2.3,2.3,0,0,0,743.62,51.61ZM743.16,48a2.35,2.35,0,0,0,.06-.66,2,2,0,0,0-2.07-2.21c-1.46,0-2.44,1.09-2.58,2.87Z"/><path class="cls-24" d="M762.76,52.41c0,.75.4,1,.92,1a1.17,1.17,0,0,0,.8-.32l.18,3.07a4.74,4.74,0,0,1-2.62.72,3.59,3.59,0,0,1-3-1.32,2.6,2.6,0,0,1-.49-1,4.38,4.38,0,0,1-4.19,2.27c-2.73,0-4.59-1.55-4.59-4.22,0-2.9,2.5-4.51,6.6-4.51.57,0,1.32.06,1.81.09V46.82a1.5,1.5,0,0,0-1.64-1.7c-1.12,0-1.72.72-1.72,2l-4.33-.6c.25-2.9,2.58-4.71,6.25-4.71,4.14,0,6,1.81,6,4.88ZM758.2,50.6c-.26,0-.63-.05-1-.05-1.89,0-2.87.6-2.87,1.78,0,.91.63,1.52,1.73,1.52a2.1,2.1,0,0,0,2.15-2.38Z"/><path class="cls-24" d="M772.81,62.66c-3.42,0-7-.89-7-3.62,0-1.52,1.3-2.49,3.13-2.75a2.71,2.71,0,0,1-2.06-2.7,3.07,3.07,0,0,1,2.64-2.87,4.29,4.29,0,0,1-2.76-4c0-3.18,2.64-4.91,6.57-4.91a8.84,8.84,0,0,1,4,.87,4.56,4.56,0,0,0,.77-2.36l3.76,1.24a3.31,3.31,0,0,1-2.67,2.69,4.2,4.2,0,0,1,.78,2.47c0,3.25-2.87,4.8-6.61,4.8a9.29,9.29,0,0,1-2.06-.21,1,1,0,0,0-.69.92c0,.52.43.72,1,.72h3.85c4,0,6,1.52,6,4.36C781.36,61.22,777.05,62.66,772.81,62.66Zm.17-2.81c2.58,0,4.25-.55,4.25-1.73,0-.77-.69-1.14-1.87-1.14h-4.1c-1,0-1.67.45-1.67,1.26C769.59,59.33,770.88,59.85,773,59.85Zm.31-11.05c1.21,0,1.93-.78,1.93-2.16s-.72-2.15-1.93-2.15-1.95.78-1.95,2.15A1.89,1.89,0,0,0,773.29,48.8Z"/><path class="cls-24" d="M792.81,54a4.26,4.26,0,0,1-4.42,3,4.34,4.34,0,0,1-4.56-4.71V42.11h4.73V51c0,1.43.63,2.27,1.87,2.27s2.29-.95,2.29-3.13v-8h4.74V56.63h-4.08Z"/><path class="cls-24" d="M810.2,51.61l3.85,1.32c-.89,2.81-3.5,4-6.32,4-4.36,0-7.17-2.79-7.17-7.47s2.75-7.75,7.29-7.75c4.25,0,6.31,2.93,6.31,6.52a8.18,8.18,0,0,1-.25,1.92h-8.82c0,2.07,1.12,3.27,2.73,3.27A2.29,2.29,0,0,0,810.2,51.61ZM809.74,48a2.35,2.35,0,0,0,.06-.66,2,2,0,0,0-2.07-2.21c-1.46,0-2.44,1.09-2.58,2.87Z"/><path class="cls-24" d="M820.05,52.13a2.29,2.29,0,0,0,2.38,1.77c1.2,0,2-.45,2-1.37,0-2.53-7.84-.26-7.84-5.89,0-3.18,2.76-4.88,6.15-4.88s5.59,1.53,6,4.22l-3.93.46a1.85,1.85,0,0,0-2.07-1.66c-1.09,0-1.75.51-1.75,1.38,0,2.55,7.9.17,7.9,6,0,3.15-2.7,4.85-6.49,4.85-3.16,0-5.68-1.3-6.32-4Z"/><path class="cls-24" d="M1061,140.29h-13.6V121.12h13.55v4H1052v3.68h7.89v3.61H1052v3.85h9Z"/><path class="cls-24" d="M1069.19,128.55a4.68,4.68,0,0,1,4.65-3.13c2.61,0,4.54,1.61,4.54,4.71v10.16h-4.74v-8.64c0-1.44-.52-2.3-1.89-2.3s-2.44.86-2.44,3.07v7.87h-4.74V125.76h4Z"/><path class="cls-24" d="M1087.76,146.32c-3.42,0-7-.89-7-3.62,0-1.52,1.29-2.5,3.13-2.76a2.69,2.69,0,0,1-2.07-2.69,3.07,3.07,0,0,1,2.64-2.87,4.3,4.3,0,0,1-2.75-4c0-3.19,2.64-4.91,6.57-4.91a8.93,8.93,0,0,1,4,.86,4.35,4.35,0,0,0,.77-2.35l3.76,1.23a3.33,3.33,0,0,1-2.67,2.7,4.2,4.2,0,0,1,.78,2.47c0,3.24-2.87,4.79-6.6,4.79a10,10,0,0,1-2.07-.2,1,1,0,0,0-.69.92c0,.52.43.72,1,.72h3.84c4,0,6,1.52,6,4.36C1096.31,144.88,1092,146.32,1087.76,146.32Zm.17-2.82c2.59,0,4.25-.54,4.25-1.72,0-.77-.69-1.15-1.87-1.15h-4.1c-1,0-1.66.46-1.66,1.27C1084.55,143,1085.84,143.5,1087.93,143.5Zm.32-11.05c1.2,0,1.92-.77,1.92-2.15s-.72-2.15-1.92-2.15-2,.77-2,2.15A1.88,1.88,0,0,0,1088.25,132.45Z"/><path class="cls-24" d="M1111,136.07c0,.75.4,1,.92,1a1.18,1.18,0,0,0,.8-.31l.17,3.07a4.71,4.71,0,0,1-2.61.72,3.59,3.59,0,0,1-3-1.32,2.45,2.45,0,0,1-.49-.95,4.41,4.41,0,0,1-4.19,2.27c-2.73,0-4.6-1.55-4.6-4.22,0-2.9,2.5-4.51,6.61-4.51.57,0,1.32.06,1.8.09v-1.47a1.49,1.49,0,0,0-1.63-1.69c-1.12,0-1.72.72-1.72,1.95l-4.34-.6c.26-2.9,2.59-4.71,6.26-4.71,4.13,0,6,1.81,6,4.88Zm-4.57-1.81a9,9,0,0,0-1-.06c-1.89,0-2.87.61-2.87,1.78,0,.92.63,1.52,1.72,1.52a2.1,2.1,0,0,0,2.15-2.38Z"/><path class="cls-24" d="M1121,146.32c-3.41,0-7-.89-7-3.62,0-1.52,1.29-2.5,3.13-2.76a2.69,2.69,0,0,1-2.07-2.69,3.07,3.07,0,0,1,2.64-2.87,4.3,4.3,0,0,1-2.75-4c0-3.19,2.64-4.91,6.57-4.91a8.93,8.93,0,0,1,4,.86,4.44,4.44,0,0,0,.78-2.35l3.76,1.23a3.34,3.34,0,0,1-2.67,2.7,4.19,4.19,0,0,1,.77,2.47c0,3.24-2.87,4.79-6.6,4.79a10,10,0,0,1-2.07-.2,1,1,0,0,0-.68.92c0,.52.43.72,1,.72h3.85c4,0,6,1.52,6,4.36C1129.58,144.88,1125.27,146.32,1121,146.32Zm.17-2.82c2.59,0,4.25-.54,4.25-1.72,0-.77-.69-1.15-1.86-1.15h-4.11c-1,0-1.66.46-1.66,1.27C1117.81,143,1119.1,143.5,1121.19,143.5Zm.32-11.05c1.21,0,1.92-.77,1.92-2.15s-.71-2.15-1.92-2.15-2,.77-2,2.15A1.88,1.88,0,0,0,1121.51,132.45Z"/><path class="cls-24" d="M1141,135.27l3.85,1.32c-.89,2.81-3.51,4-6.32,4-4.36,0-7.17-2.78-7.17-7.46s2.75-7.75,7.29-7.75c4.24,0,6.31,2.93,6.31,6.52a7.68,7.68,0,0,1-.26,1.92h-8.81c0,2.07,1.12,3.27,2.73,3.27A2.3,2.3,0,0,0,1141,135.27Zm-.46-3.65a2.35,2.35,0,0,0,.06-.66,2,2,0,0,0-2.07-2.21c-1.46,0-2.44,1.09-2.58,2.87Z"/><path class="cls-24" d="M1157.38,124.22a2.55,2.55,0,1,1,2.76-2.53A2.57,2.57,0,0,1,1157.38,124.22Zm2.36,1.54v14.53H1155V125.76Z"/><path class="cls-24" d="M1168.32,128.55a4.68,4.68,0,0,1,4.65-3.13c2.61,0,4.53,1.61,4.53,4.71v10.16h-4.73v-8.64c0-1.44-.52-2.3-1.9-2.3s-2.44.86-2.44,3.07v7.87h-4.73V125.76h4Z"/><path class="cls-24" d="M1190.71,137.62a4.29,4.29,0,0,1-4.4,3c-3.24,0-5.82-2.67-5.82-7.29,0-5.08,2.47-7.92,6.11-7.92,2,0,3.47.89,4,2.21v-8.06h4.77v20.72h-4.11Zm-.12-5.74c0-2-1.23-3-2.5-3-1.72,0-2.75,1.43-2.75,4.3,0,2.47,1,3.79,2.67,3.79,1.4,0,2.58-1.09,2.58-3.36Z"/><path class="cls-24" d="M1208.16,137.65a4.26,4.26,0,0,1-4.42,3,4.35,4.35,0,0,1-4.57-4.7V125.76h4.74v8.85c0,1.43.63,2.26,1.86,2.26s2.3-.94,2.3-3.13v-8h4.74v14.53h-4.08Z"/><path class="cls-24" d="M1219.52,135.78a2.3,2.3,0,0,0,2.38,1.78c1.21,0,2-.46,2-1.38,0-2.52-7.83-.25-7.83-5.88,0-3.19,2.75-4.88,6.14-4.88s5.6,1.52,6,4.22l-3.94.46a1.85,1.85,0,0,0-2.06-1.67c-1.09,0-1.75.52-1.75,1.38,0,2.56,7.89.17,7.89,6,0,3.16-2.7,4.85-6.49,4.85-3.15,0-5.68-1.29-6.31-4Z"/><path class="cls-24" d="M1241.16,139.43a6.65,6.65,0,0,1-4,1.2c-3.07,0-5.2-1.49-5.2-4.91v-6.48h-1.86v-3.48H1232v-3.07l4.74-.57v3.64h3.76v3.48h-3.79v5.85c0,1.21.6,1.75,1.64,1.75a3.69,3.69,0,0,0,2.18-.74Z"/><path class="cls-24" d="M1253.64,130.33a4.75,4.75,0,0,0-1.8-.32c-1.73,0-3.16,1.12-3.16,3.59v6.69h-4.74V125.76h4.11l.54,3.31a4.35,4.35,0,0,1,5.28-3.53Z"/><path class="cls-24" d="M1266,125.76h4.54l-5.22,14.9c-1.41,4-3.3,5.66-6.46,5.66a6.27,6.27,0,0,1-3.22-.84l.89-3.41a2.81,2.81,0,0,0,1.78.66c1,0,1.55-.46,2.1-2l-5.2-14.93h4.91l2.84,9.85h.06Z"/><path class="cls-24" d="M1100.63,164.77a4.77,4.77,0,0,0-1.81-.32c-1.72,0-3.15,1.12-3.15,3.59v6.69h-4.74V160.21h4.1l.55,3.3a4.35,4.35,0,0,1,5.28-3.53Z"/><path class="cls-24" d="M1112.34,169.71l3.85,1.32c-.89,2.81-3.51,4-6.32,4-4.36,0-7.17-2.78-7.17-7.46s2.75-7.75,7.29-7.75c4.25,0,6.31,2.93,6.31,6.52a7.68,7.68,0,0,1-.26,1.92h-8.81c0,2.07,1.12,3.27,2.73,3.27A2.29,2.29,0,0,0,1112.34,169.71Zm-.46-3.65a2.35,2.35,0,0,0,.06-.66,2,2,0,0,0-2.07-2.21c-1.46,0-2.44,1.09-2.58,2.87Z"/><path class="cls-24" d="M1125.71,159.86c3.62,0,5.92,2,6.2,4.94l-4.07.89c-.12-1.32-.72-2.36-2-2.36-1.75,0-2.52,1.67-2.52,4.14s.83,4.1,2.52,4.1c1.18,0,2-.86,2.1-2.32l4.1,1.26c-.55,2.84-2.93,4.56-6.17,4.56-4.42,0-7.26-2.87-7.26-7.6S1121.41,159.86,1125.71,159.86Z"/><path class="cls-24" d="M1144.57,164.77a4.77,4.77,0,0,0-1.81-.32c-1.72,0-3.16,1.12-3.16,3.59v6.69h-4.73V160.21h4.1l.55,3.3a4.34,4.34,0,0,1,5.28-3.53Z"/><path class="cls-24" d="M1156.34,172.09a4.25,4.25,0,0,1-4.42,3,4.35,4.35,0,0,1-4.57-4.7V160.21h4.74v8.84c0,1.43.63,2.26,1.86,2.26s2.3-.94,2.3-3.13v-8H1161v14.52h-4.08Z"/><path class="cls-24" d="M1167.3,158.66a2.55,2.55,0,1,1,2.76-2.53A2.57,2.57,0,0,1,1167.3,158.66Zm2.35,1.55v14.52h-4.73V160.21Z"/><path class="cls-24" d="M1183.37,173.87a6.65,6.65,0,0,1-4,1.2c-3.07,0-5.19-1.49-5.19-4.9v-6.49h-1.87v-3.47h1.89v-3.07l4.74-.58v3.65h3.76v3.47H1179v5.85c0,1.21.61,1.75,1.64,1.75a3.63,3.63,0,0,0,2.18-.74Z"/><path class="cls-24" d="M1195,169.71l3.84,1.32c-.89,2.81-3.5,4-6.31,4-4.36,0-7.18-2.78-7.18-7.46s2.76-7.75,7.29-7.75c4.25,0,6.32,2.93,6.32,6.52a8.17,8.17,0,0,1-.26,1.92h-8.81c0,2.07,1.12,3.27,2.72,3.27A2.31,2.31,0,0,0,1195,169.71Zm-.46-3.65a2.81,2.81,0,0,0,0-.66,2,2,0,0,0-2.06-2.21c-1.47,0-2.44,1.09-2.59,2.87Z"/><path class="cls-24" d="M1211.73,164.77a4.77,4.77,0,0,0-1.81-.32c-1.72,0-3.16,1.12-3.16,3.59v6.69H1202V160.21h4.1l.55,3.3A4.34,4.34,0,0,1,1212,160Z"/><path class="cls-24" d="M1217.41,170.22a2.3,2.3,0,0,0,2.38,1.78c1.21,0,2-.46,2-1.38,0-2.52-7.83-.25-7.83-5.88,0-3.18,2.75-4.88,6.14-4.88s5.6,1.52,6,4.22l-3.94.46a1.85,1.85,0,0,0-2.06-1.66c-1.09,0-1.75.51-1.75,1.37,0,2.56,7.89.18,7.89,6,0,3.16-2.7,4.85-6.49,4.85-3.15,0-5.68-1.29-6.31-4Z"/><path class="cls-24" d="M181.67,137.57h-7l-1.38,4h-4.73l7-19.17H181l7,19.17h-4.91ZM175.85,134h4.59l-2.27-6.63h-.06Z"/><path class="cls-24" d="M199.92,138.89a4.28,4.28,0,0,1-4.39,3c-3.24,0-5.82-2.67-5.82-7.29,0-5.08,2.47-7.92,6.11-7.92,2,0,3.47.89,4,2.21v-8.07h4.76v20.72h-4.1Zm-.11-5.74c0-2-1.23-3-2.5-3-1.72,0-2.75,1.43-2.75,4.3,0,2.47,1,3.79,2.67,3.79,1.4,0,2.58-1.09,2.58-3.35Z"/><path class="cls-24" d="M214.93,136.4l3-9.36h4.53l-5.34,14.52h-4.65L207.16,127h4.93l2.79,9.36Z"/><path class="cls-24" d="M233.85,136.54l3.84,1.32c-.89,2.81-3.5,4-6.31,4-4.36,0-7.18-2.79-7.18-7.47s2.76-7.74,7.29-7.74c4.25,0,6.32,2.92,6.32,6.51a8.1,8.1,0,0,1-.26,1.92h-8.81c0,2.07,1.12,3.28,2.73,3.28A2.31,2.31,0,0,0,233.85,136.54Zm-.46-3.65a2.35,2.35,0,0,0,.06-.66,2,2,0,0,0-2.07-2.21c-1.46,0-2.44,1.1-2.58,2.87Z"/><path class="cls-24" d="M250.61,131.6a4.78,4.78,0,0,0-1.81-.31c-1.72,0-3.16,1.12-3.16,3.59v6.68h-4.73V127H245l.55,3.3a4.34,4.34,0,0,1,5.28-3.53Z"/><path class="cls-24" d="M263.26,140.7a6.56,6.56,0,0,1-4,1.21c-3.07,0-5.19-1.5-5.19-4.91v-6.49h-1.87V127h1.9V124l4.73-.58V127h3.76v3.47h-3.79v5.86c0,1.2.61,1.75,1.64,1.75a3.6,3.6,0,0,0,2.18-.75Z"/><path class="cls-24" d="M268.43,125.49a2.55,2.55,0,1,1,2.76-2.53A2.57,2.57,0,0,1,268.43,125.49Zm2.35,1.55v14.52h-4.73V127Z"/><path class="cls-24" d="M277.53,137.06a2.29,2.29,0,0,0,2.38,1.78c1.21,0,2-.46,2-1.38,0-2.53-7.83-.26-7.83-5.89,0-3.18,2.75-4.87,6.14-4.87s5.59,1.52,6,4.21l-3.93.46a1.85,1.85,0,0,0-2.06-1.66c-1.09,0-1.75.52-1.75,1.38,0,2.55,7.89.17,7.89,6,0,3.15-2.7,4.85-6.49,4.85-3.16,0-5.68-1.29-6.31-4Z"/><path class="cls-24" d="M298.22,136.54l3.85,1.32c-.89,2.81-3.5,4-6.32,4-4.36,0-7.17-2.79-7.17-7.47s2.75-7.74,7.29-7.74c4.25,0,6.31,2.92,6.31,6.51a7.62,7.62,0,0,1-.26,1.92h-8.81c0,2.07,1.12,3.28,2.73,3.28A2.3,2.3,0,0,0,298.22,136.54Zm-.46-3.65a2.35,2.35,0,0,0,.06-.66,2,2,0,0,0-2.07-2.21c-1.46,0-2.44,1.1-2.58,2.87Z"/><path class="cls-24" d="M318.74,141.91c-4.36,0-7.32-2.76-7.32-7.61s3-7.6,7.32-7.6,7.29,2.72,7.29,7.6S323.08,141.91,318.74,141.91Zm0-11.77c-1.81,0-2.61,1.49-2.61,4.16s.8,4.13,2.61,4.13,2.58-1.46,2.58-4.13S320.52,130.14,318.74,130.14Z"/><path class="cls-24" d="M333.75,129.82a4.68,4.68,0,0,1,4.65-3.12c2.61,0,4.54,1.6,4.54,4.7v10.16H338.2v-8.64c0-1.43-.52-2.29-1.89-2.29s-2.44.86-2.44,3.07v7.86h-4.74V127h4.05Z"/><path class="cls-24" d="M353.55,141.13a6.14,6.14,0,0,1-3.07.72c-2,0-4-1-4-3.9V120.84h4.74v16.07c0,.86.34,1.24,1,1.24a1.76,1.76,0,0,0,1.09-.38Z"/><path class="cls-24" d="M358.69,125.49a2.55,2.55,0,1,1,2.76-2.53A2.57,2.57,0,0,1,358.69,125.49ZM361,127v14.52h-4.73V127Z"/><path class="cls-24" d="M369.63,129.82a4.66,4.66,0,0,1,4.65-3.12c2.61,0,4.53,1.6,4.53,4.7v10.16h-4.74v-8.64c0-1.43-.51-2.29-1.89-2.29s-2.44.86-2.44,3.07v7.86H365V127h4.05Z"/><path class="cls-24" d="M391.44,136.54l3.84,1.32c-.89,2.81-3.5,4-6.31,4-4.36,0-7.18-2.79-7.18-7.47s2.76-7.74,7.29-7.74c4.25,0,6.32,2.92,6.32,6.51a8.1,8.1,0,0,1-.26,1.92h-8.81c0,2.07,1.12,3.28,2.73,3.28A2.31,2.31,0,0,0,391.44,136.54Zm-.46-3.65a2.35,2.35,0,0,0,.06-.66A2,2,0,0,0,389,130c-1.46,0-2.44,1.1-2.58,2.87Z"/><path class="cls-24" d="M175.29,174.63a10.25,10.25,0,0,1-5.6,1.72c-4.25,0-7.15-2.18-7.15-5.6,0-2.15,1.21-4.05,3.85-5.22a5.46,5.46,0,0,1-1.75-3.82c0-2.87,2.32-5.22,6-5.22,3.41,0,6,1.86,6,4.79,0,2.21-1.15,3.9-4,5.05l2.89,3a11,11,0,0,0,1.53-4.37l3.84,1.09a12.61,12.61,0,0,1-2.78,6l3.79,4h-5.31Zm-2.47-2.5-4.25-4.36a2.65,2.65,0,0,0-1.72,2.58c0,1.58,1.38,2.55,3.27,2.55A5.31,5.31,0,0,0,172.82,172.13Zm-2.3-8c1.61-.72,2.21-1.49,2.21-2.67a1.78,1.78,0,0,0-2-1.72,1.73,1.73,0,0,0-1.86,1.75C168.86,162.46,169.55,163.12,170.52,164.09Z"/><path class="cls-24" d="M193.71,159.93a2.55,2.55,0,1,1,2.76-2.53A2.57,2.57,0,0,1,193.71,159.93Zm2.35,1.55V176h-4.73V161.48Z"/><path class="cls-24" d="M204.65,164.26a4.67,4.67,0,0,1,4.65-3.12c2.61,0,4.53,1.6,4.53,4.7V176h-4.74v-8.64c0-1.43-.51-2.29-1.89-2.29s-2.44.86-2.44,3.07V176H200V161.48h4Z"/><path class="cls-24" d="M227.4,171.5a2.31,2.31,0,0,0,2.39,1.78c1.2,0,2-.46,2-1.38,0-2.53-7.84-.26-7.84-5.89,0-3.18,2.76-4.87,6.14-4.87s5.6,1.52,6,4.21l-3.93.46a1.86,1.86,0,0,0-2.07-1.66c-1.09,0-1.75.52-1.75,1.38,0,2.55,7.89.17,7.89,6,0,3.15-2.69,4.85-6.48,4.85-3.16,0-5.68-1.29-6.32-4Z"/><path class="cls-24" d="M244,164.06a4.67,4.67,0,0,1,4.54-2.92c2.61,0,4.53,1.6,4.53,4.7V176h-4.73v-8.64c0-1.43-.52-2.29-1.9-2.29s-2.44.86-2.44,3.07V176h-4.73V155.28H244Z"/><path class="cls-24" d="M263.39,176.35c-4.36,0-7.32-2.76-7.32-7.61s3-7.6,7.32-7.6,7.29,2.72,7.29,7.6S267.73,176.35,263.39,176.35Zm0-11.77c-1.8,0-2.61,1.49-2.61,4.16s.81,4.13,2.61,4.13,2.59-1.46,2.59-4.13S265.17,164.58,263.39,164.58Z"/><path class="cls-24" d="M278.37,164.15a4.5,4.5,0,0,1,4.4-3c3.7,0,5.88,3,5.88,7.4,0,4.82-2.5,7.81-6.14,7.81a4.29,4.29,0,0,1-4-2.13v7.47h-4.74V161.48h4.05Zm.15,5.74c0,2.07,1.15,3,2.5,3,1.75,0,2.75-1.49,2.75-4.19s-1-3.9-2.7-3.9c-1.37,0-2.55,1.17-2.55,3.38Z"/><path class="cls-24" d="M309.86,161.48l2.15,9.39h.06l2-9.39h4.53L314.68,176h-4.56l-2.1-8.92h0l-2.1,8.92h-4.56l-3.94-14.52h4.71l2,9.39h.06l2.12-9.39Z"/><path class="cls-24" d="M323.58,159.93a2.55,2.55,0,1,1,2.75-2.53A2.57,2.57,0,0,1,323.58,159.93Zm2.35,1.55V176H321.2V161.48Z"/><path class="cls-24" d="M334.51,164.26a4.69,4.69,0,0,1,4.65-3.12c2.61,0,4.54,1.6,4.54,4.7V176H339v-8.64c0-1.43-.52-2.29-1.89-2.29s-2.44.86-2.44,3.07V176h-4.74V161.48h4.05Z"/><path class="cls-24" d="M356.9,173.33a4.29,4.29,0,0,1-4.39,3c-3.25,0-5.83-2.67-5.83-7.29,0-5.08,2.47-7.92,6.11-7.92,2,0,3.48.89,4,2.21v-8.07h4.77V176h-4.11Zm-.12-5.74c0-2-1.23-3-2.49-3-1.73,0-2.76,1.43-2.76,4.31,0,2.46,1,3.78,2.67,3.78,1.41,0,2.58-1.09,2.58-3.35Z"/><path class="cls-24" d="M372,176.35c-4.37,0-7.32-2.76-7.32-7.61s3-7.6,7.32-7.6,7.29,2.72,7.29,7.6S376.3,176.35,372,176.35Zm0-11.77c-1.81,0-2.62,1.49-2.62,4.16s.81,4.13,2.62,4.13,2.58-1.46,2.58-4.13S373.74,164.58,372,164.58Z"/><path class="cls-24" d="M393.49,161.48l2.15,9.39h.06l2-9.39h4.53L398.31,176h-4.56l-2.1-8.92h0L389.5,176h-4.56L381,161.48h4.7l2,9.39h.06l2.12-9.39Z"/><path class="cls-24" d="M1195.67,466.08V450.93h-6v-4h16.93v4h-6.06v15.15Z"/><path class="cls-24" d="M1221.62,461.86c0,.75.4,1,.92,1a1.18,1.18,0,0,0,.8-.31l.17,3.07a4.71,4.71,0,0,1-2.61.72,3.59,3.59,0,0,1-3-1.32,2.45,2.45,0,0,1-.49-.95,4.38,4.38,0,0,1-4.19,2.27c-2.73,0-4.59-1.55-4.59-4.22,0-2.9,2.49-4.51,6.6-4.51.57,0,1.32.06,1.81.09v-1.47a1.5,1.5,0,0,0-1.64-1.69c-1.12,0-1.72.72-1.72,1.95l-4.34-.6c.26-2.9,2.59-4.71,6.26-4.71,4.13,0,6,1.81,6,4.88Zm-4.56-1.81a9.3,9.3,0,0,0-1-.06c-1.89,0-2.87.61-2.87,1.78a1.51,1.51,0,0,0,1.72,1.53,2.11,2.11,0,0,0,2.16-2.39Z"/><path class="cls-24" d="M1232.9,465.65a6.14,6.14,0,0,1-3.07.72c-2,0-4-1-4-3.91v-17.1h4.73v16.07c0,.86.35,1.23,1,1.23a1.77,1.77,0,0,0,1.09-.37Z"/><path class="cls-24" d="M1250.38,466.08h-5.31l-3.76-6h-.92v6h-4.74V445.36h4.74v11.31h.95l3.41-5.11h5.17l-4.51,6.71Z"/><path class="cls-24" d="M1269.55,465.22a6.67,6.67,0,0,1-4,1.2c-3.07,0-5.2-1.49-5.2-4.9V455h-1.86v-3.47h1.89v-3.07l4.74-.58v3.65h3.76V455h-3.79v5.85c0,1.21.6,1.76,1.63,1.76a3.65,3.65,0,0,0,2.19-.75Z"/><path class="cls-24" d="M1278.82,466.42c-4.36,0-7.32-2.75-7.32-7.6s3-7.61,7.32-7.61,7.29,2.73,7.29,7.61S1283.15,466.42,1278.82,466.42Zm0-11.76c-1.81,0-2.61,1.49-2.61,4.16s.8,4.13,2.61,4.13,2.58-1.46,2.58-4.13S1280.6,454.66,1278.82,454.66Z"/><path class="cls-24" d="M1302.49,451.21c3.62,0,5.92,2,6.2,4.94l-4.07.89c-.12-1.32-.72-2.36-2-2.36-1.75,0-2.52,1.67-2.52,4.14s.83,4.1,2.52,4.1c1.18,0,2-.86,2.1-2.32l4.1,1.26c-.54,2.84-2.93,4.56-6.17,4.56-4.42,0-7.26-2.87-7.26-7.6S1298.19,451.21,1302.49,451.21Z"/><path class="cls-24" d="M1318.14,466.42c-4.37,0-7.32-2.75-7.32-7.6s3-7.61,7.32-7.61,7.29,2.73,7.29,7.61S1322.47,466.42,1318.14,466.42Zm0-11.76c-1.81,0-2.62,1.49-2.62,4.16s.81,4.13,2.62,4.13,2.58-1.46,2.58-4.13S1319.92,454.66,1318.14,454.66Z"/><path class="cls-24" d="M1333.15,454.34a4.67,4.67,0,0,1,4.65-3.13c2.61,0,4.53,1.61,4.53,4.71v10.16h-4.73v-8.64c0-1.43-.52-2.3-1.9-2.3s-2.44.87-2.44,3.08v7.86h-4.73V451.56h4Z"/><path class="cls-24" d="M1355.91,465.22a6.68,6.68,0,0,1-4,1.2c-3.07,0-5.19-1.49-5.19-4.9V455h-1.87v-3.47h1.9v-3.07l4.73-.58v3.65h3.76V455h-3.78v5.85c0,1.21.6,1.76,1.63,1.76a3.6,3.6,0,0,0,2.18-.75Z"/><path class="cls-24" d="M1370.77,461.86c0,.75.4,1,.92,1a1.16,1.16,0,0,0,.8-.31l.18,3.07a4.74,4.74,0,0,1-2.62.72,3.59,3.59,0,0,1-3-1.32,2.6,2.6,0,0,1-.49-.95,4.38,4.38,0,0,1-4.19,2.27c-2.73,0-4.59-1.55-4.59-4.22,0-2.9,2.5-4.51,6.6-4.51.57,0,1.32.06,1.81.09v-1.47a1.5,1.5,0,0,0-1.64-1.69c-1.12,0-1.72.72-1.72,1.95l-4.33-.6c.25-2.9,2.58-4.71,6.25-4.71,4.14,0,6,1.81,6,4.88Zm-4.56-1.81a9.14,9.14,0,0,0-1-.06c-1.89,0-2.87.61-2.87,1.78a1.52,1.52,0,0,0,1.73,1.53,2.1,2.1,0,0,0,2.15-2.39Z"/><path class="cls-24" d="M1381.56,451.21c3.62,0,5.92,2,6.2,4.94l-4.07.89c-.12-1.32-.72-2.36-2-2.36-1.75,0-2.53,1.67-2.53,4.14s.84,4.1,2.53,4.1c1.18,0,1.95-.86,2.09-2.32l4.11,1.26c-.55,2.84-2.93,4.56-6.17,4.56-4.42,0-7.26-2.87-7.26-7.6S1377.26,451.21,1381.56,451.21Z"/><path class="cls-24" d="M1400.48,465.22a6.67,6.67,0,0,1-4,1.2c-3.08,0-5.2-1.49-5.2-4.9V455h-1.87v-3.47h1.9v-3.07l4.73-.58v3.65h3.77V455h-3.79v5.85c0,1.21.6,1.76,1.63,1.76a3.6,3.6,0,0,0,2.18-.75Z"/><path class="cls-24" d="M1406,461.57a2.3,2.3,0,0,0,2.39,1.78c1.2,0,2-.46,2-1.38,0-2.52-7.84-.25-7.84-5.88,0-3.18,2.76-4.88,6.14-4.88s5.6,1.52,6,4.22l-3.93.46a1.86,1.86,0,0,0-2.07-1.66c-1.09,0-1.75.51-1.75,1.37,0,2.56,7.89.18,7.89,6,0,3.16-2.69,4.85-6.48,4.85-3.16,0-5.69-1.29-6.32-4Z"/><path class="cls-24" d="M16.65,446l4.13-1.72a3.67,3.67,0,0,0,3.88,2.84c1.54,0,2.84-.66,2.84-2,0-3.38-10.13-.77-10.13-8,0-3.85,3.41-6.12,7.43-6.12s6.66,1.61,7.4,4.85L27.93,437a2.9,2.9,0,0,0-3.1-2.35c-1.61,0-2.61.83-2.61,2,0,3.38,10.13.71,10.13,8.15,0,4-3.62,6.05-7.72,6.05S17.51,449.05,16.65,446Z"/><path class="cls-24" d="M40,438.66a4.48,4.48,0,0,1,4.39-3c3.7,0,5.88,3,5.88,7.41,0,4.82-2.49,7.8-6.14,7.8a4.29,4.29,0,0,1-4-2.12v7.46H35.42V436h4Zm.14,5.74c0,2.06,1.15,3,2.5,3,1.75,0,2.76-1.49,2.76-4.19s-1-3.9-2.7-3.9c-1.38,0-2.56,1.17-2.56,3.38Z"/><path class="cls-24" d="M62.19,445.49,66,446.81c-.89,2.81-3.5,4-6.31,4-4.37,0-7.18-2.78-7.18-7.46s2.76-7.75,7.29-7.75c4.25,0,6.32,2.93,6.32,6.52a8.17,8.17,0,0,1-.26,1.92H57.09c0,2.07,1.11,3.27,2.72,3.27A2.29,2.29,0,0,0,62.19,445.49Zm-.45-3.65a2.81,2.81,0,0,0,0-.66A2,2,0,0,0,59.73,439c-1.47,0-2.44,1.09-2.59,2.87Z"/><path class="cls-24" d="M81.34,446.29c0,.75.4,1,.92,1a1.18,1.18,0,0,0,.8-.31l.17,3.07a4.71,4.71,0,0,1-2.61.72,3.62,3.62,0,0,1-3-1.32,2.58,2.58,0,0,1-.48-1A4.39,4.39,0,0,1,73,450.8c-2.73,0-4.6-1.55-4.6-4.22,0-2.9,2.5-4.51,6.61-4.51.57,0,1.32.06,1.8.09v-1.47A1.49,1.49,0,0,0,75.14,439c-1.12,0-1.72.72-1.72,1.95l-4.34-.6c.26-2.9,2.58-4.71,6.26-4.71,4.13,0,6,1.81,6,4.88Zm-4.57-1.81a9.23,9.23,0,0,0-1-.05c-1.9,0-2.87.6-2.87,1.77a1.51,1.51,0,0,0,1.72,1.53,2.1,2.1,0,0,0,2.15-2.39Z"/><path class="cls-24" d="M100.54,450.51H95.23l-3.76-6h-.92v6H85.81V429.79h4.74V441.1h1L94.91,436h5.17l-4.51,6.71Z"/><path class="cls-24" d="M119.71,449.65a6.65,6.65,0,0,1-4,1.2c-3.07,0-5.2-1.49-5.2-4.9v-6.49h-1.86V436h1.89v-3.07l4.74-.58V436h3.76v3.47h-3.79v5.85c0,1.21.6,1.76,1.64,1.76a3.64,3.64,0,0,0,2.18-.75Z"/><path class="cls-24" d="M129,450.85c-4.36,0-7.32-2.75-7.32-7.6s3-7.61,7.32-7.61,7.29,2.73,7.29,7.61S133.31,450.85,129,450.85Zm0-11.76c-1.81,0-2.61,1.49-2.61,4.16s.8,4.13,2.61,4.13,2.58-1.46,2.58-4.13S130.76,439.09,129,439.09Z"/><path class="cls-24" d="M156.1,449.65a6.65,6.65,0,0,1-4,1.2c-3.07,0-5.2-1.49-5.2-4.9v-6.49h-1.86V436H147v-3.07l4.74-.58V436h3.76v3.47h-3.79v5.85c0,1.21.6,1.76,1.64,1.76a3.64,3.64,0,0,0,2.18-.75Z"/><path class="cls-24" d="M167.7,445.49l3.84,1.32c-.89,2.81-3.5,4-6.31,4-4.37,0-7.18-2.78-7.18-7.46s2.76-7.75,7.29-7.75c4.25,0,6.32,2.93,6.32,6.52a8.17,8.17,0,0,1-.26,1.92h-8.81c0,2.07,1.12,3.27,2.72,3.27A2.31,2.31,0,0,0,167.7,445.49Zm-.46-3.65a2.81,2.81,0,0,0,0-.66,2,2,0,0,0-2.06-2.21c-1.47,0-2.44,1.09-2.59,2.87Z"/><path class="cls-24" d="M184.46,440.55a4.77,4.77,0,0,0-1.81-.32c-1.72,0-3.16,1.12-3.16,3.59v6.69h-4.74V436h4.11l.54,3.3a4.36,4.36,0,0,1,5.29-3.53Z"/><path class="cls-24" d="M197.11,449.65a6.65,6.65,0,0,1-4,1.2c-3.07,0-5.19-1.49-5.19-4.9v-6.49h-1.87V436H188v-3.07l4.74-.58V436h3.76v3.47h-3.79v5.85c0,1.21.6,1.76,1.64,1.76a3.64,3.64,0,0,0,2.18-.75Z"/><path class="cls-24" d="M202.28,434.44a2.55,2.55,0,1,1,2.75-2.53A2.57,2.57,0,0,1,202.28,434.44Zm2.35,1.55v14.52H199.9V436Z"/><path class="cls-24" d="M220.68,446.29c0,.75.4,1,.91,1a1.19,1.19,0,0,0,.81-.31l.17,3.07a4.73,4.73,0,0,1-2.61.72,3.61,3.61,0,0,1-3-1.32,2.6,2.6,0,0,1-.49-1,4.37,4.37,0,0,1-4.19,2.27c-2.72,0-4.59-1.55-4.59-4.22,0-2.9,2.5-4.51,6.6-4.51.58,0,1.32.06,1.81.09v-1.47a1.49,1.49,0,0,0-1.63-1.69c-1.12,0-1.73.72-1.73,1.95l-4.33-.6c.26-2.9,2.58-4.71,6.26-4.71,4.13,0,6,1.81,6,4.88Zm-4.57-1.81a9.37,9.37,0,0,0-1-.05c-1.9,0-2.87.6-2.87,1.77a1.51,1.51,0,0,0,1.72,1.53,2.1,2.1,0,0,0,2.15-2.39Z"/><path class="cls-24" d="M234.85,440.55a4.77,4.77,0,0,0-1.81-.32c-1.72,0-3.15,1.12-3.15,3.59v6.69h-4.74V436h4.11l.54,3.3a4.35,4.35,0,0,1,5.28-3.53Z"/><path class="cls-24" d="M247.19,436h4.54l-5.23,14.89c-1.4,4-3.3,5.66-6.45,5.66a6.28,6.28,0,0,1-3.22-.83l.89-3.42a2.78,2.78,0,0,0,1.78.66c1,0,1.55-.46,2.1-2L236.4,436h4.91l2.84,9.84h.06Z"/><path class="cls-24" d="M70.92,468.88a2.55,2.55,0,1,1,2.75-2.53A2.57,2.57,0,0,1,70.92,468.88Zm2.35,1.55V485H68.54V470.43Z"/><path class="cls-24" d="M81.85,473.21a4.68,4.68,0,0,1,4.65-3.13c2.62,0,4.54,1.61,4.54,4.71V485H86.3v-8.64c0-1.43-.51-2.3-1.89-2.3s-2.44.87-2.44,3.08V485H77.23V470.43h4Z"/><path class="cls-24" d="M97.64,480.44a2.29,2.29,0,0,0,2.38,1.78c1.21,0,2-.46,2-1.37,0-2.53-7.83-.26-7.83-5.89,0-3.18,2.75-4.88,6.14-4.88s5.59,1.52,6,4.22l-3.94.46a1.85,1.85,0,0,0-2.06-1.66c-1.09,0-1.75.51-1.75,1.37,0,2.56,7.89.18,7.89,6,0,3.16-2.7,4.86-6.49,4.86-3.16,0-5.68-1.3-6.31-4Z"/><path class="cls-24" d="M119.28,484.09a6.67,6.67,0,0,1-4,1.21c-3.07,0-5.2-1.5-5.2-4.91V473.9h-1.86v-3.47h1.89v-3.07l4.74-.58v3.65h3.76v3.47h-3.79v5.86c0,1.2.6,1.75,1.63,1.75a3.65,3.65,0,0,0,2.19-.75Z"/><path class="cls-24" d="M124.44,468.88a2.55,2.55,0,1,1,2.76-2.53A2.57,2.57,0,0,1,124.44,468.88Zm2.36,1.55V485h-4.74V470.43Z"/><path class="cls-24" d="M140.52,484.09a6.67,6.67,0,0,1-4,1.21c-3.08,0-5.2-1.5-5.2-4.91V473.9h-1.87v-3.47h1.9v-3.07l4.73-.58v3.65h3.77v3.47H136.1v5.86c0,1.2.6,1.75,1.63,1.75a3.6,3.6,0,0,0,2.18-.75Z"/><path class="cls-24" d="M152.17,482.31a4.26,4.26,0,0,1-4.42,3,4.35,4.35,0,0,1-4.57-4.71V470.43h4.74v8.84c0,1.43.63,2.27,1.87,2.27s2.29-1,2.29-3.13v-8h4.74V485h-4.08Z"/><path class="cls-24" d="M170.51,484.09a6.67,6.67,0,0,1-4,1.21c-3.08,0-5.2-1.5-5.2-4.91V473.9h-1.86v-3.47h1.89v-3.07l4.74-.58v3.65h3.76v3.47h-3.79v5.86c0,1.2.6,1.75,1.63,1.75a3.6,3.6,0,0,0,2.18-.75Z"/><path class="cls-24" d="M182.1,479.93l3.85,1.32c-.89,2.81-3.5,4.05-6.32,4.05-4.36,0-7.17-2.79-7.17-7.47s2.75-7.75,7.29-7.75c4.25,0,6.31,2.93,6.31,6.52a7.68,7.68,0,0,1-.26,1.92H177c0,2.07,1.12,3.27,2.73,3.27A2.29,2.29,0,0,0,182.1,479.93Zm-.46-3.65a2.35,2.35,0,0,0,.06-.66,2,2,0,0,0-2.07-2.21c-1.46,0-2.44,1.09-2.58,2.87Z"/><path class="cls-24" d="M192,480.44a2.29,2.29,0,0,0,2.38,1.78c1.2,0,2-.46,2-1.37,0-2.53-7.84-.26-7.84-5.89,0-3.18,2.76-4.88,6.15-4.88s5.59,1.52,6,4.22l-3.93.46a1.85,1.85,0,0,0-2.07-1.66c-1.09,0-1.75.51-1.75,1.37,0,2.56,7.9.18,7.9,6,0,3.16-2.7,4.86-6.49,4.86-3.16,0-5.68-1.3-6.32-4Z"/><path class="cls-24" d="M135.08,781.84v-11.4h4.82v11.74c0,5.48-3.44,7.78-8.06,7.78s-8.07-2.3-8.07-7.78V770.44h4.85v11.4c0,2.5.92,4.1,3.22,4.1S135.08,784.34,135.08,781.84Z"/><path class="cls-24" d="M146.56,785.11a2.3,2.3,0,0,0,2.38,1.78c1.21,0,2-.46,2-1.38,0-2.52-7.83-.26-7.83-5.88,0-3.19,2.75-4.88,6.14-4.88s5.6,1.52,6,4.22l-3.94.46a1.85,1.85,0,0,0-2.06-1.67c-1.09,0-1.75.52-1.75,1.38,0,2.55,7.89.17,7.89,6,0,3.16-2.7,4.85-6.49,4.85-3.15,0-5.68-1.29-6.31-4Z"/><path class="cls-24" d="M167.25,784.59l3.85,1.32c-.89,2.82-3.5,4.05-6.32,4.05-4.36,0-7.17-2.78-7.17-7.46s2.75-7.75,7.29-7.75c4.25,0,6.31,2.93,6.31,6.51a7.7,7.7,0,0,1-.26,1.93h-8.81c0,2.06,1.12,3.27,2.73,3.27A2.29,2.29,0,0,0,167.25,784.59Zm-.46-3.64a2.35,2.35,0,0,0,.06-.66,2,2,0,0,0-2.07-2.21c-1.46,0-2.44,1.09-2.58,2.87Z"/><path class="cls-24" d="M187.77,790c-4.36,0-7.32-2.75-7.32-7.61s3-7.6,7.32-7.6,7.29,2.73,7.29,7.6S192.11,790,187.77,790Zm0-11.77c-1.81,0-2.61,1.5-2.61,4.16s.8,4.14,2.61,4.14,2.59-1.47,2.59-4.14S189.55,778.19,187.77,778.19Z"/><path class="cls-24" d="M202.78,777.88a4.68,4.68,0,0,1,4.65-3.13c2.61,0,4.54,1.61,4.54,4.71v10.16h-4.74V781c0-1.44-.52-2.3-1.89-2.3s-2.44.86-2.44,3.07v7.87h-4.74V775.09h4.05Z"/><path class="cls-24" d="M222.58,789.19a6.14,6.14,0,0,1-3.07.71c-2,0-4-1-4-3.9V768.89h4.74V785c0,.86.34,1.23,1,1.23a1.8,1.8,0,0,0,1.1-.37Z"/><path class="cls-24" d="M227.72,773.54a2.55,2.55,0,1,1,2.76-2.52A2.56,2.56,0,0,1,227.72,773.54Zm2.36,1.55v14.53h-4.74V775.09Z"/><path class="cls-24" d="M238.66,777.88a4.67,4.67,0,0,1,4.65-3.13c2.61,0,4.53,1.61,4.53,4.71v10.16h-4.73V781c0-1.44-.52-2.3-1.9-2.3s-2.44.86-2.44,3.07v7.87H234V775.09h4Z"/><path class="cls-24" d="M260.47,784.59l3.84,1.32c-.89,2.82-3.5,4.05-6.31,4.05-4.36,0-7.18-2.78-7.18-7.46s2.76-7.75,7.3-7.75c4.24,0,6.31,2.93,6.31,6.51a8.19,8.19,0,0,1-.26,1.93h-8.81c0,2.06,1.12,3.27,2.73,3.27A2.3,2.3,0,0,0,260.47,784.59ZM260,781a2.35,2.35,0,0,0,.06-.66,2,2,0,0,0-2.07-2.21c-1.46,0-2.44,1.09-2.58,2.87Z"/><path class="cls-24" d="M82.86,814.1a4.77,4.77,0,0,0-1.81-.32c-1.72,0-3.15,1.12-3.15,3.59v6.69H73.16V809.53h4.1l.55,3.3a4.36,4.36,0,0,1,5.28-3.53Z"/><path class="cls-24" d="M94.57,819l3.85,1.32c-.89,2.82-3.51,4-6.32,4-4.36,0-7.17-2.78-7.17-7.46s2.75-7.75,7.29-7.75c4.24,0,6.31,2.93,6.31,6.51a7.7,7.7,0,0,1-.26,1.93H89.46c0,2.06,1.12,3.27,2.73,3.27A2.3,2.3,0,0,0,94.57,819Zm-.46-3.64a2.35,2.35,0,0,0,.06-.66,2,2,0,0,0-2.07-2.21c-1.46,0-2.44,1.09-2.58,2.87Z"/><path class="cls-24" d="M107.94,809.19c3.62,0,5.92,2,6.2,4.94l-4.07.89c-.12-1.32-.72-2.36-2-2.36-1.75,0-2.53,1.67-2.53,4.14s.84,4.1,2.53,4.1c1.18,0,2-.86,2.1-2.33l4.1,1.27c-.55,2.84-2.93,4.56-6.17,4.56-4.42,0-7.26-2.87-7.26-7.6S103.64,809.19,107.94,809.19Z"/><path class="cls-24" d="M126.8,814.1a4.77,4.77,0,0,0-1.81-.32c-1.72,0-3.16,1.12-3.16,3.59v6.69H117.1V809.53h4.1l.55,3.3A4.36,4.36,0,0,1,127,809.3Z"/><path class="cls-24" d="M138.57,821.42a4.26,4.26,0,0,1-4.42,3,4.35,4.35,0,0,1-4.57-4.71V809.53h4.74v8.84c0,1.44.63,2.27,1.86,2.27s2.3-.95,2.3-3.13v-8h4.74v14.53h-4.08Z"/><path class="cls-24" d="M149.53,808a2.55,2.55,0,1,1,2.75-2.52A2.56,2.56,0,0,1,149.53,808Zm2.35,1.55v14.53h-4.73V809.53Z"/><path class="cls-24" d="M165.6,823.2a6.65,6.65,0,0,1-4,1.2c-3.07,0-5.19-1.49-5.19-4.91V813h-1.87v-3.48h1.89v-3.07l4.74-.57v3.64H165V813h-3.79v5.85c0,1.21.6,1.75,1.64,1.75a3.69,3.69,0,0,0,2.18-.74Z"/><path class="cls-24" d="M177.2,819l3.84,1.32c-.89,2.82-3.5,4-6.31,4-4.36,0-7.18-2.78-7.18-7.46s2.76-7.75,7.29-7.75c4.25,0,6.32,2.93,6.32,6.51a8.19,8.19,0,0,1-.26,1.93h-8.81c0,2.06,1.12,3.27,2.72,3.27A2.31,2.31,0,0,0,177.2,819Zm-.46-3.64a2.81,2.81,0,0,0,0-.66,2,2,0,0,0-2.06-2.21c-1.47,0-2.44,1.09-2.59,2.87Z"/><path class="cls-24" d="M194,814.1a4.77,4.77,0,0,0-1.81-.32c-1.72,0-3.16,1.12-3.16,3.59v6.69h-4.73V809.53h4.1l.55,3.3a4.36,4.36,0,0,1,5.28-3.53Z"/><path class="cls-24" d="M206.61,819.55a2.31,2.31,0,0,0,2.39,1.78c1.2,0,2-.46,2-1.38,0-2.52-7.84-.26-7.84-5.88,0-3.19,2.76-4.88,6.14-4.88s5.6,1.52,6,4.22l-3.93.46a1.86,1.86,0,0,0-2.07-1.67c-1.09,0-1.75.52-1.75,1.38,0,2.56,7.89.17,7.89,6,0,3.16-2.69,4.85-6.48,4.85-3.16,0-5.69-1.29-6.32-4Z"/><path class="cls-24" d="M227.31,819l3.84,1.32c-.89,2.82-3.5,4-6.31,4-4.37,0-7.18-2.78-7.18-7.46s2.76-7.75,7.29-7.75c4.25,0,6.32,2.93,6.32,6.51a8.19,8.19,0,0,1-.26,1.93H222.2c0,2.06,1.12,3.27,2.72,3.27A2.31,2.31,0,0,0,227.31,819Zm-.46-3.64a2.81,2.81,0,0,0,.05-.66,2,2,0,0,0-2.06-2.21c-1.47,0-2.44,1.09-2.59,2.87Z"/><path class="cls-24" d="M244.07,814.1a4.77,4.77,0,0,0-1.81-.32c-1.72,0-3.16,1.12-3.16,3.59v6.69h-4.73V809.53h4.1l.54,3.3a4.37,4.37,0,0,1,5.29-3.53Z"/><path class="cls-24" d="M253.39,818.89l3-9.36h4.53l-5.34,14.53H251l-5.33-14.53h4.93l2.79,9.36Z"/><path class="cls-24" d="M265.88,808a2.55,2.55,0,1,1,2.75-2.52A2.56,2.56,0,0,1,265.88,808Zm2.35,1.55v14.53H263.5V809.53Z"/><path class="cls-24" d="M278.51,809.19c3.61,0,5.91,2,6.2,4.94l-4.08.89c-.11-1.32-.72-2.36-2-2.36-1.75,0-2.52,1.67-2.52,4.14s.83,4.1,2.52,4.1c1.18,0,2-.86,2.1-2.33l4.1,1.27c-.54,2.84-2.93,4.56-6.17,4.56-4.42,0-7.26-2.87-7.26-7.6S274.2,809.19,278.51,809.19Z"/><path class="cls-24" d="M296.47,819l3.85,1.32c-.89,2.82-3.5,4-6.32,4-4.36,0-7.17-2.78-7.17-7.46s2.75-7.75,7.29-7.75c4.25,0,6.31,2.93,6.31,6.51a7.7,7.7,0,0,1-.26,1.93h-8.81c0,2.06,1.12,3.27,2.73,3.27A2.29,2.29,0,0,0,296.47,819Zm-.46-3.64a2.35,2.35,0,0,0,.06-.66,2,2,0,0,0-2.07-2.21c-1.46,0-2.44,1.09-2.58,2.87Z"/><path class="cls-24" d="M306.32,819.55a2.29,2.29,0,0,0,2.38,1.78c1.2,0,2-.46,2-1.38,0-2.52-7.84-.26-7.84-5.88,0-3.19,2.76-4.88,6.15-4.88s5.59,1.52,6,4.22l-3.93.46A1.85,1.85,0,0,0,309,812.2c-1.09,0-1.75.52-1.75,1.38,0,2.56,7.9.17,7.9,6,0,3.16-2.7,4.85-6.49,4.85-3.16,0-5.68-1.29-6.32-4Z"/><path class="cls-24" d="M330.16,990.56l4.13-1.72a3.68,3.68,0,0,0,3.88,2.84c1.55,0,2.84-.66,2.84-2,0-3.39-10.13-.78-10.13-8,0-3.85,3.41-6.12,7.43-6.12s6.66,1.61,7.41,4.86l-4.28,1.17a2.9,2.9,0,0,0-3.1-2.35c-1.61,0-2.61.83-2.61,2,0,3.39,10.13.72,10.13,8.15,0,4-3.62,6.06-7.72,6.06S331,993.58,330.16,990.56Z"/><path class="cls-24" d="M357.74,990l3.85,1.32c-.89,2.81-3.51,4-6.32,4-4.36,0-7.17-2.79-7.17-7.47s2.75-7.74,7.29-7.74c4.24,0,6.31,2.92,6.31,6.51a7.62,7.62,0,0,1-.26,1.92h-8.81c0,2.07,1.12,3.28,2.73,3.28A2.3,2.3,0,0,0,357.74,990Zm-.46-3.65a2.35,2.35,0,0,0,.06-.66,2,2,0,0,0-2.07-2.21c-1.46,0-2.44,1.1-2.58,2.87Z"/><path class="cls-24" d="M376.88,990.82c0,.75.4,1,.92,1a1.2,1.2,0,0,0,.81-.32l.17,3.07a4.73,4.73,0,0,1-2.61.72,3.61,3.61,0,0,1-3-1.32,2.6,2.6,0,0,1-.49-1,4.37,4.37,0,0,1-4.19,2.27c-2.72,0-4.59-1.55-4.59-4.22,0-2.9,2.5-4.51,6.6-4.51.58,0,1.32.06,1.81.09v-1.46a1.5,1.5,0,0,0-1.64-1.7c-1.12,0-1.72.72-1.72,2l-4.33-.6c.26-2.9,2.58-4.7,6.25-4.7,4.14,0,6,1.8,6,4.87ZM372.32,989c-.26,0-.63,0-1,0-1.89,0-2.87.6-2.87,1.78,0,.92.64,1.52,1.73,1.52a2.1,2.1,0,0,0,2.15-2.38Z"/><path class="cls-24" d="M391.06,985.08a4.78,4.78,0,0,0-1.81-.31c-1.72,0-3.15,1.12-3.15,3.58V995h-4.74V980.52h4.1l.55,3.3a4.34,4.34,0,0,1,5.28-3.53Z"/><path class="cls-24" d="M400.27,980.18c3.62,0,5.92,2,6.2,4.93l-4.07.89c-.12-1.32-.72-2.35-2-2.35-1.75,0-2.53,1.66-2.53,4.13s.84,4.11,2.53,4.11c1.18,0,1.95-.87,2.09-2.33l4.11,1.26c-.55,2.84-2.93,4.57-6.17,4.57-4.42,0-7.26-2.87-7.26-7.61S396,980.18,400.27,980.18Z"/><path class="cls-24" d="M414.16,983.1a4.67,4.67,0,0,1,4.54-2.92c2.61,0,4.53,1.6,4.53,4.7V995H418.5V986.4c0-1.43-.52-2.29-1.9-2.29s-2.44.86-2.44,3.07V995h-4.73V974.32h4.73Z"/><path class="cls-24" d="M439.05,975.87V991h8.49v4H434.22V975.87Z"/><path class="cls-24" d="M453.08,979a2.55,2.55,0,1,1,2.76-2.53A2.57,2.57,0,0,1,453.08,979Zm2.35,1.55V995H450.7V980.52Z"/><path class="cls-24" d="M464,983.3a4.68,4.68,0,0,1,4.65-3.12c2.62,0,4.54,1.6,4.54,4.7V995h-4.74V986.4c0-1.43-.51-2.29-1.89-2.29s-2.44.86-2.44,3.07V995h-4.74V980.52h4.05Z"/><path class="cls-24" d="M491.74,995h-5.31l-3.76-6h-.92v6H477V974.32h4.73v11.31h.95l3.41-5.11h5.17l-4.51,6.72Z"/><path class="cls-24" d="M503,990l3.85,1.32c-.89,2.81-3.51,4-6.32,4-4.36,0-7.17-2.79-7.17-7.47s2.75-7.74,7.29-7.74c4.24,0,6.31,2.92,6.31,6.51a7.62,7.62,0,0,1-.26,1.92h-8.81c0,2.07,1.12,3.28,2.73,3.28A2.3,2.3,0,0,0,503,990Zm-.46-3.65a2.35,2.35,0,0,0,.06-.66,2,2,0,0,0-2.07-2.21c-1.46,0-2.44,1.1-2.58,2.87Z"/><path class="cls-24" d="M519.43,992.37a4.28,4.28,0,0,1-4.39,3c-3.24,0-5.82-2.67-5.82-7.29,0-5.08,2.46-7.92,6.11-7.92,2,0,3.47.88,4,2.21v-8.07h4.76V995H520Zm-.11-5.74c0-2-1.23-3-2.5-3-1.72,0-2.75,1.43-2.75,4.3,0,2.47,1,3.79,2.67,3.79,1.4,0,2.58-1.09,2.58-3.36Z"/><path class="cls-24" d="M533,975.87V995h-4.82V975.87Z"/><path class="cls-24" d="M541.79,983.3a4.68,4.68,0,0,1,4.65-3.12c2.61,0,4.54,1.6,4.54,4.7V995h-4.74V986.4c0-1.43-.52-2.29-1.89-2.29s-2.44.86-2.44,3.07V995h-4.74V980.52h4.05Z"/><path class="cls-24" d="M924.3,990.18v6h-4.83V977h8c4.62,0,7.34,2.39,7.34,6.6s-3,6.58-7.34,6.58Zm2.55-9.36H924.3v5.6h2.55c2,0,3-1,3-2.79S928.92,980.82,926.85,980.82Z"/><path class="cls-24" d="M944.1,996.52c-4.36,0-7.32-2.76-7.32-7.61s3-7.6,7.32-7.6,7.29,2.73,7.29,7.6S948.43,996.52,944.1,996.52Zm0-11.77c-1.81,0-2.61,1.5-2.61,4.16s.8,4.14,2.61,4.14,2.58-1.47,2.58-4.14S945.88,984.75,944.1,984.75Z"/><path class="cls-24" d="M957.27,991.67a2.31,2.31,0,0,0,2.39,1.78c1.2,0,2-.46,2-1.38,0-2.52-7.84-.26-7.84-5.88,0-3.19,2.76-4.88,6.14-4.88s5.6,1.52,6,4.22L962,986a1.86,1.86,0,0,0-2.07-1.67c-1.09,0-1.75.52-1.75,1.38,0,2.55,7.89.17,7.89,6,0,3.16-2.7,4.85-6.48,4.85-3.16,0-5.69-1.29-6.32-4Z"/><path class="cls-24" d="M978.91,995.31a6.58,6.58,0,0,1-4,1.21c-3.07,0-5.19-1.49-5.19-4.91v-6.48h-1.87v-3.48h1.89v-3.07l4.74-.57v3.64h3.76v3.48h-3.79V991c0,1.21.61,1.75,1.64,1.75a3.69,3.69,0,0,0,2.18-.74Z"/><path class="cls-24" d="M991.05,980.1a2.55,2.55,0,1,1,2.76-2.52A2.56,2.56,0,0,1,991.05,980.1Zm2.36,1.55v14.53h-4.74V981.65Z"/><path class="cls-24" d="M1002,984.44a4.67,4.67,0,0,1,4.65-3.13c2.61,0,4.53,1.61,4.53,4.71v10.16h-4.73v-8.64c0-1.44-.52-2.3-1.9-2.3s-2.44.86-2.44,3.07v7.87h-4.73V981.65h4Z"/><path class="cls-24" d="M1024.34,980.1a2.55,2.55,0,1,1,2.76-2.52A2.56,2.56,0,0,1,1024.34,980.1Zm2.36,1.55v14.53H1022V981.65Z"/><path class="cls-24" d="M1035.28,984.44a4.68,4.68,0,0,1,4.65-3.13c2.61,0,4.53,1.61,4.53,4.71v10.16h-4.73v-8.64c0-1.44-.52-2.3-1.9-2.3s-2.44.86-2.44,3.07v7.87h-4.73V981.65h4Z"/><path class="cls-24" d="M1057.66,993.51a4.27,4.27,0,0,1-4.39,3c-3.24,0-5.82-2.67-5.82-7.29,0-5.08,2.47-7.92,6.11-7.92,2,0,3.47.89,4,2.21v-8.07h4.76v20.73h-4.1Zm-.11-5.74c0-2-1.23-3-2.5-3-1.72,0-2.75,1.44-2.75,4.31,0,2.47,1,3.79,2.67,3.79,1.4,0,2.58-1.09,2.58-3.36Z"/><path class="cls-24" d="M1075.11,993.54a4.25,4.25,0,0,1-4.42,3,4.35,4.35,0,0,1-4.56-4.71V981.65h4.74v8.84c0,1.44.63,2.27,1.86,2.27s2.3-1,2.3-3.13v-8h4.73v14.53h-4.07Z"/><path class="cls-24" d="M1086.48,991.67a2.3,2.3,0,0,0,2.38,1.78c1.21,0,2-.46,2-1.38,0-2.52-7.83-.26-7.83-5.88,0-3.19,2.75-4.88,6.14-4.88s5.59,1.52,6,4.22l-3.94.46a1.85,1.85,0,0,0-2.06-1.67c-1.09,0-1.75.52-1.75,1.38,0,2.55,7.89.17,7.89,6,0,3.16-2.7,4.85-6.49,4.85-3.16,0-5.68-1.29-6.31-4Z"/><path class="cls-24" d="M1108.12,995.31a6.58,6.58,0,0,1-4,1.21c-3.07,0-5.2-1.49-5.2-4.91v-6.48h-1.86v-3.48H1099v-3.07l4.74-.57v3.64h3.76v3.48h-3.79V991c0,1.21.6,1.75,1.63,1.75a3.7,3.7,0,0,0,2.19-.74Z"/><path class="cls-24" d="M1120.6,986.22a4.77,4.77,0,0,0-1.81-.32c-1.72,0-3.15,1.12-3.15,3.59v6.69h-4.74V981.65H1115l.54,3.3a4.37,4.37,0,0,1,5.28-3.53Z"/><path class="cls-24" d="M1132.94,981.65h4.54l-5.23,14.9c-1.4,4-3.3,5.65-6.45,5.65a6.28,6.28,0,0,1-3.22-.83l.89-3.41a2.78,2.78,0,0,0,1.78.66c1,0,1.55-.46,2.1-2l-5.2-14.93h4.91l2.84,9.85h.06Z"/><path class="cls-24" d="M893.79,1026.11a2.3,2.3,0,0,0,2.38,1.78c1.21,0,2-.46,2-1.38,0-2.52-7.83-.26-7.83-5.88,0-3.19,2.75-4.88,6.14-4.88s5.6,1.52,6,4.22l-3.94.46a1.85,1.85,0,0,0-2.06-1.67c-1.09,0-1.75.52-1.75,1.38,0,2.55,7.89.17,7.89,6,0,3.16-2.7,4.85-6.49,4.85-3.15,0-5.68-1.29-6.31-4Z"/><path class="cls-24" d="M912.16,1031c-4.37,0-7.32-2.75-7.32-7.61s2.95-7.6,7.32-7.6,7.29,2.73,7.29,7.6S916.49,1031,912.16,1031Zm0-11.77c-1.81,0-2.61,1.5-2.61,4.16s.8,4.14,2.61,4.14,2.58-1.47,2.58-4.14S913.94,1019.19,912.16,1019.19Z"/><path class="cls-24" d="M928.86,1015.75c3.62,0,5.91,2,6.2,4.94l-4.08.89c-.11-1.32-.71-2.36-2-2.36-1.75,0-2.53,1.67-2.53,4.13,0,2.62.83,4.11,2.53,4.11,1.17,0,1.95-.86,2.09-2.33l4.11,1.27c-.55,2.84-2.93,4.56-6.18,4.56-4.41,0-7.26-2.87-7.26-7.61S924.56,1015.75,928.86,1015.75Z"/><path class="cls-24" d="M940.4,1014.54a2.55,2.55,0,1,1,2.75-2.52A2.56,2.56,0,0,1,940.4,1014.54Zm2.35,1.55v14.53H938v-14.53Z"/><path class="cls-24" d="M958.79,1026.4c0,.74.41,1,.92,1a1.15,1.15,0,0,0,.81-.32l.17,3.08a4.82,4.82,0,0,1-2.61.71,3.58,3.58,0,0,1-3-1.32,2.55,2.55,0,0,1-.49-.94,4.38,4.38,0,0,1-4.19,2.26c-2.72,0-4.59-1.55-4.59-4.22,0-2.89,2.5-4.5,6.6-4.5.58,0,1.32.06,1.81.08v-1.46a1.5,1.5,0,0,0-1.64-1.69c-1.11,0-1.72.71-1.72,1.95l-4.33-.6c.26-2.9,2.58-4.71,6.26-4.71,4.13,0,6,1.81,6,4.88Zm-4.56-1.81a9.1,9.1,0,0,0-1-.06c-1.9,0-2.87.6-2.87,1.78,0,.92.63,1.52,1.72,1.52a2.1,2.1,0,0,0,2.15-2.38Z"/><path class="cls-24" d="M970.07,1030.19a6.14,6.14,0,0,1-3.07.71c-2,0-4-1-4-3.9v-17.11h4.74V1026c0,.86.34,1.23,1,1.23a1.77,1.77,0,0,0,1.09-.37Z"/><path class="cls-24" d="M997.68,1015.75c2.59,0,4.51,1.55,4.51,4.65v10.22h-4.77V1022c0-1.44-.43-2.27-1.83-2.27-1.18,0-2.24.86-2.24,3v7.9h-4.74V1022c0-1.44-.46-2.27-1.83-2.27-1.21,0-2.24.86-2.24,3v7.9H979.8v-14.53h4.05l.57,2.79a4.47,4.47,0,0,1,4.45-3.13,4.17,4.17,0,0,1,4.28,3.07A4.66,4.66,0,0,1,997.68,1015.75Z"/><path class="cls-24" d="M1014.79,1025.59l3.84,1.32c-.89,2.82-3.5,4-6.31,4-4.36,0-7.18-2.78-7.18-7.46s2.76-7.75,7.29-7.75c4.25,0,6.32,2.93,6.32,6.51a8.19,8.19,0,0,1-.26,1.93h-8.81c0,2.06,1.12,3.27,2.73,3.27A2.3,2.3,0,0,0,1014.79,1025.59Zm-.46-3.64a2.35,2.35,0,0,0,.06-.66,2,2,0,0,0-2.07-2.21c-1.46,0-2.44,1.09-2.58,2.87Z"/><path class="cls-24" d="M1031.23,1028a4.27,4.27,0,0,1-4.39,3c-3.24,0-5.83-2.67-5.83-7.29,0-5.08,2.47-7.92,6.12-7.92,2,0,3.47.89,4,2.21v-8.07h4.76v20.73h-4.1Zm-.11-5.74c0-2-1.24-3-2.5-3-1.72,0-2.75,1.44-2.75,4.31,0,2.47,1,3.79,2.66,3.79,1.41,0,2.59-1.09,2.59-3.36Z"/><path class="cls-24" d="M1042.2,1014.54A2.55,2.55,0,1,1,1045,1012,2.56,2.56,0,0,1,1042.2,1014.54Zm2.35,1.55v14.53h-4.74v-14.53Z"/><path class="cls-24" d="M1060.59,1026.4c0,.74.4,1,.92,1a1.15,1.15,0,0,0,.81-.32l.17,3.08a4.82,4.82,0,0,1-2.61.71,3.58,3.58,0,0,1-3-1.32,2.55,2.55,0,0,1-.49-.94,4.38,4.38,0,0,1-4.19,2.26c-2.72,0-4.59-1.55-4.59-4.22,0-2.89,2.5-4.5,6.6-4.5.58,0,1.32.06,1.81.08v-1.46a1.5,1.5,0,0,0-1.64-1.69c-1.12,0-1.72.71-1.72,1.95l-4.33-.6c.26-2.9,2.58-4.71,6.25-4.71,4.14,0,6,1.81,6,4.88Zm-4.56-1.81a9.14,9.14,0,0,0-1-.06c-1.89,0-2.87.6-2.87,1.78,0,.92.64,1.52,1.73,1.52a2.1,2.1,0,0,0,2.15-2.38Z"/><path class="cls-24" d="M1077.61,1036.64c-3.41,0-7-.89-7-3.61,0-1.52,1.29-2.5,3.13-2.76a2.7,2.7,0,0,1-2.07-2.7,3.09,3.09,0,0,1,2.64-2.87,4.28,4.28,0,0,1-2.75-4c0-3.19,2.64-4.91,6.57-4.91a8.8,8.8,0,0,1,4,.86,4.44,4.44,0,0,0,.78-2.35l3.76,1.23a3.36,3.36,0,0,1-2.67,2.7,4.26,4.26,0,0,1,.77,2.47c0,3.24-2.87,4.79-6.6,4.79a10,10,0,0,1-2.07-.2,1,1,0,0,0-.69.92c0,.51.43.72,1,.72h3.84c4,0,6,1.52,6,4.36C1086.16,1035.21,1081.86,1036.64,1077.61,1036.64Zm.17-2.81c2.59,0,4.25-.54,4.25-1.72,0-.78-.69-1.15-1.86-1.15h-4.11c-1,0-1.66.46-1.66,1.26C1074.4,1033.31,1075.69,1033.83,1077.78,1033.83Zm.32-11c1.21,0,1.92-.77,1.92-2.15s-.71-2.15-1.92-2.15-1.95.77-1.95,2.15A1.88,1.88,0,0,0,1078.1,1022.78Z"/><path class="cls-24" d="M1098.45,1020.66a4.77,4.77,0,0,0-1.81-.32c-1.72,0-3.16,1.12-3.16,3.59v6.69h-4.73v-14.53h4.1l.55,3.3a4.36,4.36,0,0,1,5.28-3.53Z"/><path class="cls-24" d="M1107.83,1031c-4.36,0-7.32-2.75-7.32-7.61s3-7.6,7.32-7.6,7.29,2.73,7.29,7.6S1112.17,1031,1107.83,1031Zm0-11.77c-1.81,0-2.61,1.5-2.61,4.16s.8,4.14,2.61,4.14,2.59-1.47,2.59-4.14S1109.61,1019.19,1107.83,1019.19Z"/><path class="cls-24" d="M1127.09,1028a4.25,4.25,0,0,1-4.42,3,4.34,4.34,0,0,1-4.56-4.71v-10.16h4.73v8.84c0,1.44.63,2.27,1.87,2.27s2.29-1,2.29-3.13v-8h4.74v14.53h-4.08Z"/><path class="cls-24" d="M1140.26,1018.76a4.49,4.49,0,0,1,4.39-3c3.71,0,5.89,3,5.89,7.4,0,4.83-2.5,7.81-6.14,7.81a4.3,4.3,0,0,1-4-2.12v7.46h-4.74v-20.21h4Zm.15,5.74c0,2.07,1.14,3,2.49,3,1.75,0,2.76-1.5,2.76-4.2s-1-3.9-2.7-3.9c-1.38,0-2.55,1.18-2.55,3.39Z"/><path class="cls-24" d="M1156.42,1026.11a2.3,2.3,0,0,0,2.38,1.78c1.21,0,2-.46,2-1.38,0-2.52-7.83-.26-7.83-5.88,0-3.19,2.75-4.88,6.14-4.88s5.6,1.52,6,4.22l-3.94.46a1.85,1.85,0,0,0-2.06-1.67c-1.09,0-1.75.52-1.75,1.38,0,2.55,7.89.17,7.89,6,0,3.16-2.7,4.85-6.49,4.85-3.15,0-5.68-1.29-6.31-4Z"/><path class="cls-24" d="M1157.81,778.82V767.43h4.82v11.74c0,5.48-3.44,7.78-8.07,7.78s-8.06-2.3-8.06-7.78V767.43h4.85v11.39c0,2.5.92,4.11,3.21,4.11S1157.81,781.32,1157.81,778.82Z"/><path class="cls-24" d="M1169.29,782.1a2.29,2.29,0,0,0,2.38,1.77c1.2,0,2-.45,2-1.37,0-2.53-7.84-.26-7.84-5.89,0-3.18,2.76-4.88,6.15-4.88s5.59,1.52,6,4.22l-3.93.46a1.85,1.85,0,0,0-2.07-1.66c-1.09,0-1.75.51-1.75,1.37,0,2.56,7.9.18,7.9,6,0,3.15-2.7,4.85-6.49,4.85-3.16,0-5.68-1.3-6.31-4Z"/><path class="cls-24" d="M1190,781.58l3.85,1.32c-.89,2.81-3.51,4.05-6.32,4.05-4.36,0-7.17-2.79-7.17-7.47s2.75-7.75,7.29-7.75c4.24,0,6.31,2.93,6.31,6.52a7.68,7.68,0,0,1-.26,1.92h-8.81c0,2.07,1.12,3.27,2.73,3.27A2.3,2.3,0,0,0,1190,781.58Zm-.46-3.65a2.35,2.35,0,0,0,.06-.66,2,2,0,0,0-2.07-2.21c-1.46,0-2.44,1.09-2.58,2.87Z"/><path class="cls-24" d="M1208.75,772.08v14.26c0,5.34-3.82,7-8,6l.35-3.61c1.83.63,3,.08,3-2.39V772.08Zm-2.35-1.55a2.55,2.55,0,1,1,2.75-2.53A2.57,2.57,0,0,1,1206.4,770.53Z"/><path class="cls-24" d="M1219.2,787c-4.37,0-7.32-2.76-7.32-7.61s2.95-7.61,7.32-7.61,7.29,2.73,7.29,7.61S1223.53,787,1219.2,787Zm0-11.77c-1.81,0-2.62,1.49-2.62,4.16s.81,4.13,2.62,4.13,2.58-1.46,2.58-4.13S1221,775.18,1219.2,775.18Z"/><path class="cls-24" d="M1234.32,774.57a4.29,4.29,0,0,1,4.25-2.84c3.7,0,5.88,3,5.88,7.41,0,4.82-2.49,7.81-6.2,7.81a4.22,4.22,0,0,1-4.19-2.79l-.6,2.44h-3.88V765.88h4.74Zm0,5.66c0,2.24,1.15,3.21,2.5,3.21,1.75,0,2.75-1.46,2.75-4.19s-1-3.9-2.69-3.9c-1.38,0-2.56,1.15-2.56,3.41Z"/><path class="cls-24" d="M1259.26,774.57a4.29,4.29,0,0,1,4.25-2.84c3.7,0,5.88,3,5.88,7.41,0,4.82-2.49,7.81-6.2,7.81a4.22,4.22,0,0,1-4.19-2.79l-.6,2.44h-3.88V765.88h4.74Zm0,5.66c0,2.24,1.15,3.21,2.5,3.21,1.75,0,2.75-1.46,2.75-4.19s-1-3.9-2.69-3.9c-1.38,0-2.56,1.15-2.56,3.41Z"/><path class="cls-24" d="M1279,787c-4.36,0-7.32-2.76-7.32-7.61s3-7.61,7.32-7.61,7.29,2.73,7.29,7.61S1283.31,787,1279,787Zm0-11.77c-1.81,0-2.61,1.49-2.61,4.16s.8,4.13,2.61,4.13,2.58-1.46,2.58-4.13S1280.76,775.18,1279,775.18Z"/><path class="cls-24" d="M1301.45,782.38c0,.75.4,1,.92,1a1.19,1.19,0,0,0,.8-.32l.17,3.07a4.71,4.71,0,0,1-2.61.72,3.59,3.59,0,0,1-3-1.32,2.45,2.45,0,0,1-.49-1,4.38,4.38,0,0,1-4.19,2.27c-2.73,0-4.59-1.55-4.59-4.22,0-2.9,2.49-4.51,6.6-4.51.57,0,1.32.06,1.81.09v-1.47a1.5,1.5,0,0,0-1.64-1.69c-1.12,0-1.72.72-1.72,1.95l-4.34-.6c.26-2.9,2.59-4.71,6.26-4.71,4.13,0,6,1.81,6,4.88Zm-4.56-1.81c-.26,0-.63-.05-1-.05-1.89,0-2.87.6-2.87,1.78a1.51,1.51,0,0,0,1.72,1.52,2.1,2.1,0,0,0,2.16-2.39Z"/><path class="cls-24" d="M1315.63,776.64a4.78,4.78,0,0,0-1.81-.31c-1.72,0-3.16,1.11-3.16,3.58v6.69h-4.73V772.08h4.1l.55,3.3a4.34,4.34,0,0,1,5.28-3.53Z"/><path class="cls-24" d="M1327.91,783.93a4.29,4.29,0,0,1-4.39,3c-3.24,0-5.83-2.67-5.83-7.3,0-5.08,2.47-7.92,6.12-7.92,2,0,3.47.89,4,2.21v-8.06h4.76V786.6h-4.1Zm-.11-5.74c0-2-1.24-3-2.5-3-1.72,0-2.76,1.43-2.76,4.3,0,2.47,1,3.79,2.67,3.79,1.41,0,2.59-1.09,2.59-3.36Z"/><path class="cls-24" d="M1339.28,782.1a2.29,2.29,0,0,0,2.38,1.77c1.2,0,2-.45,2-1.37,0-2.53-7.84-.26-7.84-5.89,0-3.18,2.76-4.88,6.15-4.88s5.59,1.52,6,4.22l-3.93.46a1.85,1.85,0,0,0-2.07-1.66c-1.09,0-1.75.51-1.75,1.37,0,2.56,7.9.18,7.9,6,0,3.15-2.7,4.85-6.49,4.85-3.16,0-5.68-1.3-6.32-4Z"/><polygon class="cls-7" points="878.72 532.03 885.06 532.03 886.45 529.68 885.06 519.78 878.72 519.78 878.72 532.03"/><path class="cls-7" d="M879.13,534.81l5.93-2.58-1.29-3.81-8.53,3.81a.53.53,0,0,0-.12.88l1.69,1.38A2.25,2.25,0,0,0,879.13,534.81Z"/><path class="cls-7" d="M876.5,528a5,5,0,0,1,2.14-2.76l2.63-4.13-3.2-2.41-3.48,5.79a2.93,2.93,0,0,0,.75,3.84h0A.75.75,0,0,0,876.5,528Z"/><ellipse class="cls-7" cx="879.46" cy="520.49" rx="2.14" ry="2.32"/><ellipse class="cls-7" cx="884.51" cy="530.28" rx="1.94" ry="2.09"/><rect class="cls-7" x="877.87" y="515.33" width="7.19" height="4.48" transform="translate(1762.93 1035.15) rotate(-180)"/><polygon class="cls-7" points="808.23 531.34 801.89 531.34 800.5 528.98 801.89 519.08 808.23 519.08 808.23 531.34"/><path class="cls-7" d="M807.82,534.12l-5.93-2.59,1.29-3.81,8.53,3.81a.52.52,0,0,1,.12.88l-1.69,1.38A2.25,2.25,0,0,1,807.82,534.12Z"/><path class="cls-7" d="M810.45,527.34a5.07,5.07,0,0,0-2.13-2.76l-2.64-4.13,3.21-2.41,3.47,5.79a2.92,2.92,0,0,1-.75,3.84h0A.75.75,0,0,1,810.45,527.34Z"/><ellipse class="cls-7" cx="807.49" cy="519.79" rx="2.14" ry="2.32"/><ellipse class="cls-7" cx="802.44" cy="529.58" rx="1.94" ry="2.09"/><rect class="cls-7" x="801.89" y="514.64" width="7.19" height="4.48"/><rect class="cls-28" x="852.85" y="654.78" width="12.22" height="16.1"/><polygon class="cls-28" points="822 670.98 807.08 670.98 809.78 657.8 823.43 659.71 822 670.98"/><path class="cls-14" d="M808.72,575.18l7-83.93,33.8,1.58c5.6,8.73-7.93,77.38-16.45,83.55Z"/><path class="cls-23" d="M815.31,499.36V486.12h57.22v13.24c0,7.41-21.37,27.85-28.61,27.85C834.5,527.22,815.31,506.77,815.31,499.36Z"/><path class="cls-23" d="M845.4,577c-2.32-32.44-2-69.82-1.77-75.92v-7.95l25.91-.08a4,4,0,0,1,3.62,4.43l.41,27.7c.35,11.38-1.32,40.16-2.87,51.44l.1,1.17Z"/><path class="cls-23" d="M845.4,577l-.16,20.75c-.35,8.28,3.29,46.11,4.44,58.83-2.07,2.44,0,4.19,0,4.19h17.11c1-.35,1.74-2.45.47-4.17,1.63-10.32,4.56-35.07,4.72-42.1,0-2.4.07-4.32,0-5.4l-1.26-31.31Z"/><path class="cls-14" d="M808.72,575.18,804.6,661l21.1.16c-2.87-25,12.59-49.57,7.42-84.79Z"/><circle class="cls-17" cx="876.3" cy="464.15" r="9.68"/><path class="cls-14" d="M866.87,466.26l19.28-1.72.39,50.28c-.13,3.34-11.61,3.51-12,.61Z"/><circle class="cls-14" cx="876.42" cy="465.22" r="9.68"/><path class="cls-14" d="M857.6,415.9l1.93-.32a17.75,17.75,0,0,1,20.36,14.24l6.14,33.8-19.09,3.18Z"/><circle class="cls-17" cx="809.25" cy="464.15" r="9.68"/><path class="cls-14" d="M819.07,467.17l-19.28-1.72-.39,50.28c.13,3.34,11.62,3.51,12,.61Z"/><circle class="cls-14" cx="809.52" cy="466.13" r="9.68"/><path class="cls-14" d="M828.35,416.81l-1.93-.32a17.75,17.75,0,0,0-20.37,14.24l-6.13,33.8L819,467.71Z"/><polygon class="cls-7" points="836.34 396.46 850.7 396.5 857.41 416.19 831.52 416.39 836.34 396.46"/><path class="cls-19" d="M853.53,404.78l-2.83-8.28-14.36,0-2.19,9.06C841,408.45,847.91,408.53,853.53,404.78Z"/><path class="cls-31" d="M864.65,418.15c-.68-2.2-2.53-3.16-4.82-3.24l-.51,0-7.61-.9c-.08-.17-.16-.34-.25-.51a2.31,2.31,0,0,0-2.36-1H838.56a2.31,2.31,0,0,0-2.36,1l-.26.51-7.61.9-.51,0c-2.28.08-4.14,0-4.88,2.17-20.5,60.25-9,85.64-9,85.64h13.85v0l16,0,16,0v0h13.78S882.64,476.33,864.65,418.15Z"/><path class="cls-7" d="M849.65,378.56H837.48a3.5,3.5,0,0,0-3.5,3.5c-.55,7.92-1.24,21.64,2.24,22.61,4.51,1.35,13.23,1.84,15.68-.61,2-2,1.83-13.76,1.25-22A3.5,3.5,0,0,0,849.65,378.56Z"/><path class="cls-33" d="M848.61,393.76c1.14.15,2.31-.21,2.45-1.35a1.55,1.55,0,0,0,0-.22v-2.6a1.83,1.83,0,0,0-1.82-1.82h-2.67a1.82,1.82,0,0,0-1.82,1.82v1.75C844.76,393.55,846.93,393.55,848.61,393.76Z"/><path class="cls-33" d="M838.68,393.76c-1.14.15-2.32-.21-2.45-1.35a1.55,1.55,0,0,1,0-.22v-2.6a1.83,1.83,0,0,1,1.82-1.82h2.67a1.82,1.82,0,0,1,1.82,1.82v1.75C842.53,393.55,840.36,393.55,838.68,393.76Z"/><path class="cls-34" d="M854.63,379.69a3.87,3.87,0,0,0-3.3-4.23c-9.7-1.42-17-2.22-20.13-1.56-.73.16,2.38,2.16,1.14,2.27-2.84.28-2.21.95.14,1.9v11l3.76,3.76V379.41c3,1.79,13.15,1.41,14.66-.85v13.91l3.76-3.38v-9.4Z"/><line class="cls-33" x1="842.63" y1="390.22" x2="844.88" y2="390.22"/><circle class="cls-7" cx="833.15" cy="391.9" r="2.35"/><circle class="cls-35" cx="853.92" cy="391.9" r="2.35"/><path class="cls-27" d="M806.65,675.74a5.4,5.4,0,0,0-5.38-5.42v-.08l-6,.17A10.7,10.7,0,0,0,785,681.05h0l16.2.07h0A5.4,5.4,0,0,0,806.65,675.74Z"/><path class="cls-27" d="M806.69,664.62v1.76a3.83,3.83,0,0,1-3.65,3.81l-1.77,0v.08h0a5.42,5.42,0,0,0-5.17,7.08,5.36,5.36,0,0,0,5.13,3.72h0l21.59.08,0-9.84V671l0-6.35h-.55a4.52,4.52,0,0,0-3.89,2.18l-1,1.61a3.53,3.53,0,0,1-3,1.7h0a3.52,3.52,0,0,1-3.07-1.84l-.74-1.35a4.55,4.55,0,0,0-4-2.37Z"/><circle class="cls-14" cx="820.74" cy="575.92" r="12.27"/><path class="cls-27" d="M871.16,678.09H845.77a10.19,10.19,0,0,0-.4,2.83h26.18A10.64,10.64,0,0,0,871.16,678.09Z"/><path class="cls-27" d="M867.58,671.22h0a8.1,8.1,0,0,1-2.37-5.73v-2.67a1.08,1.08,0,0,0-1.08-1.08h-.21l-.29,2.67a2.89,2.89,0,0,1-2.88,2.59h-4.22a2.9,2.9,0,0,1-2.89-2.59l-.29-2.67h-.55a1.08,1.08,0,0,0-1.08,1.08v2.67a7.93,7.93,0,0,1-2.3,5.66,13.71,13.71,0,0,0-4.09,9.77H871.6A13.75,13.75,0,0,0,867.58,671.22Z"/><circle class="cls-23" cx="858.09" cy="576.91" r="12.57"/><path class="cls-36" d="M845.21,481.54c-16.28,0-28.22-13.91-31.33-31.11-9,39.23.06,52.76.06,52.76h13.85v0s7.61,0,16,0,16,0,16,0v0h13.78s4.38-13.34.9-40.88C868.79,473.78,857.81,481.54,845.21,481.54Z"/><rect class="cls-24" x="840.95" y="417.08" width="3.32" height="33.18"/><path class="cls-24" d="M857.91,415.1q-16.1,4.95-28.93,0l4.39-4.65c5.21.95,13.74.95,22-.46Z"/><circle class="cls-31" cx="842.85" cy="424.19" r="0.47"/><circle class="cls-31" cx="842.85" cy="434.62" r="0.47"/><circle class="cls-31" cx="842.85" cy="445.05" r="0.47"/><path class="cls-7" d="M750.17,528.27l-21.45-27.68c-7.09,20.56-.92,70.2,6.1,84.86-5.55,30.93,5,48.13,4.89,79.5l-.1,2.89a7.12,7.12,0,0,1-4.88,5.84l-15.27,4.89,2.08,1.74h25.1l3.53-91.61Z"/><polygon class="cls-7" points="741.56 671.93 741.47 672.3 723.19 677.67 721.54 680.31 739.37 680.31 746.64 680.31 745.26 674.82 741.56 671.93"/><path class="cls-23" d="M741,677l-1.93.24c-2.13.27-17.77.69-17.77.69-3,.19-4,1.2-4,2.42h29.26l.29-11.73C740.68,671.49,743.56,676.65,741,677Z"/><path class="cls-37" d="M758.21,668.62h4.25c.92,0,1.71.87,1.9,2.09l2,6.7h-12l2-6.7C756.5,669.49,757.29,668.62,758.21,668.62Z"/><path class="cls-7" d="M767.81,582c7-14.67,14.19-60.82,7.1-81.38l-21.46,27.68-.12,60.43,3.37,73,.4,7.13a16.52,16.52,0,0,1-1.44,5.51l-1.58,4.77a3.48,3.48,0,0,0-.21,1.2v.1a1.59,1.59,0,0,0,1.58,1.59h9.77a1.59,1.59,0,0,0,1.59-1.59v-.1a3.27,3.27,0,0,0-.22-1.2L765,674.37a16.77,16.77,0,0,1-1.44-5.51S771.63,595.83,767.81,582Z"/><path class="cls-23" d="M767.4,680.6v-.11a3.88,3.88,0,0,0-.23-1.31l-1.36-4.08a6.92,6.92,0,0,1-10.95,0l-1.35,4.08a3.66,3.66,0,0,0-.24,1.31v.11c.05.92,1.16,1.63,2.47,2.14a13,13,0,0,0,9.32,0C766.43,682.25,767.53,681.54,767.4,680.6Z"/><path class="cls-5" d="M758.55,525.94l18-17.08c-1.64-10.09-3.44-16.19-7.67-20.77h-35c-4.48,3.25-5.37,10.81-6.18,18.9l16.82,18.44A9.82,9.82,0,0,0,758.55,525.94Z"/><circle class="cls-5" cx="743.7" cy="583.09" r="6.57"/><path class="cls-7" d="M726.83,512.41l2.44-32-8.45-2.58,1,37a15,15,0,0,0,.52,3.52l1.63,5.92a3.16,3.16,0,0,0,1.56,2l1.68.88a1.34,1.34,0,0,0,2-1.36Z"/><path class="cls-7" d="M729.27,522.8h0a1.18,1.18,0,0,0,.81-1.46l-3.45-9.22-.49,6.37,1.74,3.68A1.18,1.18,0,0,0,729.27,522.8Z"/><path class="cls-38" d="M761.57,426.85l-.91-.74a10.19,10.19,0,0,0-6.43-2.3H747a10.21,10.21,0,0,0-7.24,3Z"/><path class="cls-39" d="M765.67,426.85H740.25a29.31,29.31,0,0,0-8.67,1.32l-3.3,1,8.1,42c1,4.82-1.29,9-2.82,13.91L729.78,493H770.4l-3.83-11.48a13.77,13.77,0,0,1-1.7-8.61l7.49-37.9A6.83,6.83,0,0,0,765.67,426.85Z"/><path class="cls-39" d="M781.87,478.76l-9.35,1.4L766,459.94V426.85h0a9.21,9.21,0,0,1,10.51,8Z"/><path class="cls-39" d="M720.15,480.63l10.29.93,4.65-26-2.78-25.92-3.07-.46a5.77,5.77,0,0,0-6.62,5.4Z"/><path class="cls-7" d="M749,438.67l-7.49-11.82h5.95l3.65-.75,3.83.75h6L753,438.71A2.41,2.41,0,0,1,749,438.67Z"/><path class="cls-24" d="M761.34,426.55l-5.82,8.67L753,433.44l5.81-8.67A5,5,0,0,1,761.34,426.55Z"/><path class="cls-24" d="M739.79,426.85l6.71,8.37,2.49-1.78-5.93-8.81A4.48,4.48,0,0,0,739.79,426.85Z"/><path class="cls-40" d="M730.1,485.61a1.07,1.07,0,0,0,1.28-.91l.26-1.95a1.08,1.08,0,0,0-.82-1.19l-8.94-2.14c-2-.61-3.13-.45-3.76.12a2.92,2.92,0,0,0-.73,1.93,1.68,1.68,0,0,0,1.34,1.78Z"/><polygon class="cls-40" points="765.44 478.3 735.63 478.3 736.29 474.77 765.08 474.77 765.44 478.3"/><path class="cls-39" d="M787.05,596.7a96.34,96.34,0,0,1-26.6-.28l-2-.38a64.64,64.64,0,0,0-23-.08h0c-9.15,1.62-22.67-2-22.67-2,2-23,4.63-71.1,22.88-115.64h29.81C793.11,519.83,787.05,596.7,787.05,596.7Z"/><path class="cls-12" d="M773.73,403.05h0a3.23,3.23,0,0,1-3.23-3.23v-2.36h0a10.35,10.35,0,0,0-4-7.55c-5-4.25-11.57-7.85-21.7-6.28-8.93,1.38-10.95,6.65-9,10.52-2.94,4.1-5.18,11.59-2.86,17.22l-.84-.13a4.36,4.36,0,0,0-4.35,4.36h0a4.34,4.34,0,0,0,4.35,4.34h1.6l38.8.4C781.26,420.34,780.57,403.79,773.73,403.05Z"/><rect class="cls-7" x="746.92" y="416.33" width="8.52" height="11.69"/><path class="cls-19" d="M755.44,416.33h-8.52v4.95a9.75,9.75,0,0,0,2,.2c2.92,0,5.42-1.19,6.55-2.89Z"/><path class="cls-7" d="M751.3,393.48h-.42c-4.72,0-8.54-.14-8.54,4.37v8.21a14.73,14.73,0,0,0,5.92,11.79c1.09.82,4.76.82,5.82,0a14.7,14.7,0,0,0,5.76-11.67v-8.34C759.84,393.34,756,393.48,751.3,393.48Z"/><path class="cls-17" d="M762,400.48c0-7.07-3.65-12.81-10.94-12.81-6.92,0-10.94,5.74-10.94,12.81,0,2.88.87,2.49,2.24,4.63,0,0-.35-10.79,2.34-10.75,1.82,0,6.55,7.95,14.38,5.84h.64v8.1A14.16,14.16,0,0,0,762,400.48Z"/><circle class="cls-7" cx="759.46" cy="406.28" r="1.87"/><circle class="cls-7" cx="741.69" cy="406.28" r="1.87"/><circle class="cls-24" cx="742.22" cy="409.83" r="1.54"/><circle class="cls-24" cx="760.71" cy="409.83" r="1.54"/><path class="cls-7" d="M775.81,512.41l-2.44-32,8.45-2.58-1,37a14.48,14.48,0,0,1-.53,3.52l-1.62,5.92a3.17,3.17,0,0,1-1.57,2l-1.67.88a1.34,1.34,0,0,1-1.95-1.36Z"/><path class="cls-40" d="M772.85,482.31a1.07,1.07,0,0,1-1.28-.91l-.26-1.95a1.08,1.08,0,0,1,.82-1.19l7.26-1.93c2-.61,3.13-.46,3.75.12a2.88,2.88,0,0,1,.74,1.92,1.69,1.69,0,0,1-1.35,1.79Z"/><path class="cls-7" d="M773.36,522.8h0a1.18,1.18,0,0,1-.8-1.46l3.45-9.22.49,6.37-1.74,3.68A1.19,1.19,0,0,1,773.36,522.8Z"/><ellipse class="cls-32" cx="732.5" cy="176.39" rx="53.62" ry="44.27"/><polygon class="cls-32" points="704.83 207.65 704.83 236.87 733.3 208.39 704.83 207.65"/><ellipse class="cls-32" cx="1067.34" cy="477.31" rx="53.62" ry="44.27"/><polygon class="cls-32" points="1039.67 508.57 1039.67 537.79 1068.14 509.32 1039.67 508.57"/><text class="cls-41" transform="translate(722.65 194.86)">i</text><path class="cls-42" d="M432,467.65c2.29,4,11.36,15.6,11.36,15.6-7.88,20.18-29.86,41.19-29.86,41.19s-30.38-.91-49.74-10.64c0,0-1-14.69-2-19.19"/><polygon class="cls-42" points="455.07 441.06 404.09 499.86 326.86 490.28 377.84 431.48 455.07 441.06"/><path class="cls-43" d="M432,467.65l-27.93,32.21-42.31-5.25h0c.12.55.24,1.26.36,2.08,0,0,24.2,11.21,45.23,11.72,15.7-13.39,25.77-39,25.77-39-.45-.69-.84-1.3-1.12-1.79Z"/><path class="cls-44" d="M391,465.93c-20.17-29.16-51.83-5-69-33.21"/><circle class="cls-45" cx="390.99" cy="465.93" r="2.07"/><path class="cls-44" d="M311.69,425.88s1.35,4.86,9.86,6.47c0,0-1.15-7-4.06-10.84"/><path class="cls-44" d="M313.08,423.23s0,7.51,8.47,9.12a98.55,98.55,0,0,0-6-9.38"/><path class="cls-44" d="M315.65,423.79s0,7.52,5.9,8.56a69,69,0,0,0-4.25-8.73"/><rect class="cls-46" x="407.75" y="728.72" width="24.1" height="26.73"/><rect class="cls-42" x="361.76" y="649.84" width="120.94" height="78.87" rx="4.42" ry="4.42"/><rect class="cls-47" x="359.33" y="649.84" width="120.94" height="78.87" rx="4.42" ry="4.42"/><rect class="cls-24" x="367.22" y="656.86" width="105.16" height="64.85"/><rect class="cls-42" x="367.22" y="656.86" width="105.16" height="2.19"/><rect class="cls-31" x="375.98" y="663.87" width="14.46" height="14.46"/><rect class="cls-48" x="404.85" y="684.54" width="58.42" height="2.29"/><rect class="cls-48" x="404.85" y="690.94" width="58.42" height="2.29"/><rect class="cls-48" x="404.85" y="697.33" width="44.94" height="2.29"/><rect class="cls-48" x="404.85" y="703.72" width="58.42" height="9.43"/><rect class="cls-49" x="397.02" y="663.87" width="66.16" height="14.46"/><path class="cls-46" d="M401.18,754.57h37.25a3.51,3.51,0,0,1,3.51,3.51v0a0,0,0,0,1,0,0H397.67a0,0,0,0,1,0,0v0a3.51,3.51,0,0,1,3.51-3.51Z"/><path class="cls-49" d="M359.33,721.71v5.43a1.58,1.58,0,0,0,1.58,1.58H478.7a1.57,1.57,0,0,0,1.57-1.58v-5.43Z"/><circle class="cls-50" cx="419.66" cy="725.18" r="1.88"/><rect class="cls-48" x="362.14" y="757.89" width="113.92" height="4.14"/><rect class="cls-31" x="472.45" y="723.87" width="4.85" height="2.42"/><circle class="cls-51" cx="385.91" cy="699.83" r="9.58"/><circle class="cls-52" cx="385.57" cy="697.77" r="9.58"/><polyline class="cls-53" points="381.44 697.41 383.62 700.32 391.07 695.23"/><path class="cls-54" d="M384.34,672.48a3.8,3.8,0,0,0,2.17-3.56,3.38,3.38,0,1,0-6.72,0,3.77,3.77,0,0,0,2.22,3.53,5.92,5.92,0,0,0-4.71,5.84l11.83-.09A5.92,5.92,0,0,0,384.34,672.48Z"/><rect class="cls-55" x="460.23" y="206.38" width="82.87" height="108.07"/><rect class="cls-46" x="479.05" y="287.36" width="46.5" height="1.13"/><rect class="cls-46" x="479.05" y="291.61" width="25.16" height="2.82"/><rect class="cls-46" x="479.05" y="226.58" width="36.02" height="2.82"/><rect class="cls-46" x="479.05" y="231.94" width="28.67" height="2.82"/><rect class="cls-46" x="479.05" y="237.23" width="36.02" height="2.82"/><rect class="cls-46" x="479.05" y="252.6" width="46.5" height="1.13"/><rect class="cls-46" x="479.05" y="277.64" width="25.16" height="2.82"/><rect class="cls-46" x="479.05" y="271.2" width="25.16" height="2.82"/><rect class="cls-46" x="479.05" y="264.76" width="25.16" height="2.82"/><rect class="cls-46" x="479.05" y="258.32" width="25.16" height="2.82"/><rect class="cls-46" x="520.29" y="271.2" width="5.26" height="2.82"/><rect class="cls-46" x="520.29" y="277.64" width="5.26" height="2.82"/><rect class="cls-46" x="522.08" y="264.76" width="3.47" height="2.82"/><rect class="cls-46" x="507.72" y="291.61" width="18.16" height="2.82"/><polygon class="cls-31" points="454.51 219.99 474.65 199.82 473.24 199.37 473.47 198.37 472.16 198.57 472.73 197.2 471.47 197.39 471.11 196.23 469.54 196.46 470.27 194.88 469.02 195.07 469.06 194.04 468.14 193.92 447.9 213.94 448.91 213.85 448.47 214.81 449.96 214.91 449.83 216.21 451.25 216.26 451.46 217.7 452.53 217.6 452.65 218.8 454.31 218.62 453.49 219.7 454.51 219.99"/><polygon class="cls-31" points="536.43 326.83 556.56 306.66 555.15 306.2 555.39 305.21 554.07 305.41 554.64 304.04 553.39 304.23 553.02 303.07 551.46 303.3 552.18 301.72 550.93 301.91 550.97 300.88 550.06 300.76 529.81 320.78 530.82 320.69 530.39 321.65 531.87 321.75 531.75 323.05 533.16 323.1 533.37 324.54 534.45 324.44 534.56 325.64 536.22 325.46 535.4 326.54 536.43 326.83"/><polygon class="cls-31" points="555.79 214.34 536.61 193.25 536.09 194.64 535.11 194.36 535.24 195.68 533.91 195.05 534.03 196.31 532.86 196.62 533.01 198.19 531.47 197.39 531.6 198.65 530.57 198.56 530.41 199.47 549.43 220.66 549.39 219.64 550.33 220.12 550.5 218.64 551.79 218.83 551.9 217.42 553.35 217.28 553.31 216.2 554.51 216.15 554.41 214.48 555.45 215.35 555.79 214.34"/><polygon class="cls-31" points="472.93 321.84 453.75 300.76 453.23 302.14 452.25 301.86 452.38 303.18 451.04 302.55 451.17 303.81 449.99 304.12 450.15 305.69 448.61 304.89 448.73 306.15 447.7 306.06 447.54 306.97 466.56 328.16 466.52 327.15 467.46 327.63 467.63 326.15 468.92 326.34 469.04 324.93 470.49 324.78 470.44 323.7 471.64 323.65 471.54 321.98 472.58 322.86 472.93 321.84"/><polygon class="cls-56" points="999.76 772.17 996.42 775.99 995.47 771.07 1007.17 725.4 1011.46 726.5 999.76 772.17"/><polygon class="cls-52" points="1025.56 721.99 997.89 714.05 1014.06 672.73 1033.76 678.38 1025.56 721.99"/><path class="cls-52" d="M1014.38,711.14a28,28,0,0,0-29.13,8.9q9.62,3.48,20,6.48c9.92,2.84,19.64,5.11,29,6.82A27.93,27.93,0,0,0,1014.38,711.14Z"/><path class="cls-51" d="M1007.21,657.85c-1.61,10.36,4.9,19.71,15.24,22.68a21.32,21.32,0,0,0,25.34-12.28,81.51,81.51,0,0,1-20.79-3.46C1019.66,662.68,1012.52,661,1007.21,657.85Z"/><ellipse class="cls-57" cx="1027.5" cy="663.05" rx="2.13" ry="20.95" transform="translate(130.18 1493.84) rotate(-75.63)"/><rect class="cls-46" x="822.24" y="879.74" width="24.1" height="26.73"/><rect class="cls-42" x="776.24" y="800.87" width="120.94" height="78.87" rx="4.42" ry="4.42"/><rect class="cls-47" x="773.82" y="800.87" width="120.94" height="78.87" rx="4.42" ry="4.42"/><rect class="cls-24" x="781.71" y="807.88" width="105.16" height="64.85"/><rect class="cls-32" x="781.71" y="807.88" width="105.16" height="2.19"/><rect class="cls-48" x="811.12" y="831.49" width="44.99" height="2.29"/><rect class="cls-48" x="811.12" y="836.27" width="44.99" height="2.29"/><rect class="cls-48" x="811.12" y="841.48" width="44.99" height="1.71"/><rect class="cls-48" x="811.12" y="847.83" width="44.99" height="9.43"/><rect class="cls-49" x="811.12" y="814.85" width="44.99" height="14.46"/><rect class="cls-49" x="811.12" y="862.82" width="44.99" height="9.88"/><path class="cls-46" d="M815.67,905.6h37.25a3.51,3.51,0,0,1,3.51,3.51v0a0,0,0,0,1,0,0H812.16a0,0,0,0,1,0,0v0A3.51,3.51,0,0,1,815.67,905.6Z"/><path class="cls-49" d="M773.82,872.73v5.44a1.57,1.57,0,0,0,1.57,1.57H893.18a1.57,1.57,0,0,0,1.58-1.57v-5.44Z"/><circle class="cls-50" cx="834.14" cy="876.21" r="1.88"/><rect class="cls-48" x="776.62" y="908.92" width="113.92" height="4.14"/><rect class="cls-31" x="886.93" y="874.89" width="4.85" height="2.42"/><circle class="cls-24" cx="1048.64" cy="478.04" r="6.6"/><circle class="cls-24" cx="1067.56" cy="478.04" r="6.6"/><circle class="cls-24" cx="1086.49" cy="478.04" r="6.6"/><path class="cls-1" d="M672.83,781.8a254,254,0,0,1-119-57.92l-120,138.33a436.35,436.35,0,0,0,204.25,99.34,441.86,441.86,0,0,0,75.84,8l3-183.09A256.2,256.2,0,0,1,672.83,781.8Z"/><g class="cls-58"><polygon class="cls-7" points="578.17 883.45 535.67 883.45 535.3 914.09 577.8 914.09 578.17 883.45"/><rect class="cls-42" x="535.3" y="926.38" width="42.87" height="38.6"/><rect class="cls-24" x="535.3" y="911.69" width="42.87" height="14.68"/><line class="cls-59" x1="537.67" y1="911.69" x2="537.67" y2="926.38"/><line class="cls-59" x1="541.1" y1="911.69" x2="541.1" y2="926.38"/><line class="cls-59" x1="544.54" y1="911.69" x2="544.54" y2="926.38"/><line class="cls-59" x1="547.97" y1="911.69" x2="547.97" y2="926.38"/><line class="cls-59" x1="551.41" y1="911.69" x2="551.41" y2="926.38"/><line class="cls-59" x1="554.84" y1="911.69" x2="554.84" y2="926.38"/><line class="cls-59" x1="558.27" y1="911.69" x2="558.27" y2="926.38"/><line class="cls-59" x1="561.71" y1="911.69" x2="561.71" y2="926.38"/><line class="cls-59" x1="565.14" y1="911.69" x2="565.14" y2="926.38"/><line class="cls-59" x1="568.58" y1="911.69" x2="568.58" y2="926.38"/><line class="cls-59" x1="572.01" y1="911.69" x2="572.01" y2="926.38"/><line class="cls-59" x1="575.44" y1="911.69" x2="575.44" y2="926.38"/><line class="cls-60" x1="535.3" y1="926.38" x2="578.17" y2="926.38"/><line class="cls-61" x1="535.3" y1="929.93" x2="578.17" y2="929.93"/><path class="cls-7" d="M581.93,861.26V836.44c-13.9-15.76-37.67-15.66-56.51,0v24.82a28.26,28.26,0,0,0,28.26,28.26h0A28.25,28.25,0,0,0,581.93,861.26Z"/><path class="cls-7" d="M525.42,858.54c0-.15,0-.3,0-.45h0V810.17a2.25,2.25,0,0,1,2.25-2.25h.06c5.76,0,10.43,5.58,10.43,11.34v8.13a12.85,12.85,0,0,0,5.94,11,2.2,2.2,0,0,0,1.11.36,19.79,19.79,0,1,1-19.79,19.79Z"/><rect class="cls-42" x="571.82" y="796.78" width="5.39" height="1.27"/><path class="cls-42" d="M577.92,890.93H535.55a1.76,1.76,0,0,1-1.75-1.75l-.12-89.27a2.27,2.27,0,0,1,2.28-2.29h41.29a2.29,2.29,0,0,1,2.29,2.28l.13,89.28A1.75,1.75,0,0,1,577.92,890.93Z"/><path class="cls-31" d="M581.52,890.93H539.15a1.75,1.75,0,0,1-1.75-1.75l-.13-89.27a2.29,2.29,0,0,1,2.29-2.29h41.29a2.29,2.29,0,0,1,2.29,2.28l.13,89.28A1.76,1.76,0,0,1,581.52,890.93Z"/><polygon class="cls-42" points="581.42 877.09 538.72 877.09 538.59 807.9 581.28 807.9 581.42 877.09"/><polygon class="cls-24" points="581.42 873.61 538.72 873.61 538.59 811.38 581.28 811.38 581.42 873.61"/><rect class="cls-42" x="580.66" y="807.9" width="0.76" height="69.19"/><rect class="cls-31" x="537.67" y="807.9" width="0.42" height="69.19"/><rect class="cls-42" x="556.76" y="804.42" width="6.7" height="0.87" rx="0.44" ry="0.44"/><circle class="cls-42" cx="560.4" cy="801.69" r="0.56"/><circle class="cls-24" cx="560.08" cy="884.67" r="4.12"/><circle class="cls-42" cx="560.08" cy="884.67" r="2.86"/><rect class="cls-31" x="535.01" y="807.89" width="0.95" height="6.98"/><path class="cls-62" d="M583.14,800a2.25,2.25,0,0,0-2.29-2.23H539.56a2.25,2.25,0,0,0-2.29,2.23l.07,57.69L583.17,821Z"/><path class="cls-54" d="M547.71,821.16a3,3,0,0,0,1.74-2.86,2.72,2.72,0,1,0-5.41,0,3.08,3.08,0,0,0,1.79,2.85,4.75,4.75,0,0,0-3.79,4.69l9.52-.07A4.76,4.76,0,0,0,547.71,821.16Z"/><path class="cls-54" d="M547.86,837a3,3,0,0,0,1.75-2.86,2.72,2.72,0,1,0-5.41,0A3,3,0,0,0,546,837a4.77,4.77,0,0,0-3.79,4.69l9.53-.06A4.78,4.78,0,0,0,547.86,837Z"/><path class="cls-54" d="M548.07,852.86a3,3,0,0,0,1.75-2.86,2.72,2.72,0,1,0-5.41,0,3,3,0,0,0,1.78,2.84,4.77,4.77,0,0,0-3.79,4.69l9.53-.06A4.79,4.79,0,0,0,548.07,852.86Z"/><line class="cls-63" x1="555.96" y1="816.22" x2="570.53" y2="816.22"/><line class="cls-63" x1="555.96" y1="820.55" x2="576.03" y2="820.55"/><line class="cls-63" x1="555.96" y1="824.88" x2="576.03" y2="824.88"/><line class="cls-63" x1="555.96" y1="831.76" x2="570.53" y2="831.76"/><line class="cls-63" x1="555.96" y1="836.09" x2="576.03" y2="836.09"/><line class="cls-63" x1="555.96" y1="840.42" x2="576.03" y2="840.42"/><line class="cls-63" x1="555.96" y1="848.58" x2="570.53" y2="848.58"/><line class="cls-63" x1="555.96" y1="852.91" x2="576.03" y2="852.91"/><line class="cls-63" x1="555.96" y1="857.24" x2="576.03" y2="857.24"/><circle class="cls-7" cx="583.8" cy="828.36" r="5.6"/><circle class="cls-7" cx="583.8" cy="839.49" r="5.6"/><circle class="cls-7" cx="583.8" cy="850.68" r="5.6"/><circle class="cls-7" cx="583.8" cy="861.87" r="5.6"/><path class="cls-64" d="M581.53,826h.53a2.4,2.4,0,0,1,2.4,2.4v0a2.4,2.4,0,0,1-2.4,2.4h-.53a0,0,0,0,1,0,0V826A0,0,0,0,1,581.53,826Z"/><path class="cls-64" d="M581.53,837.22h.53a2.4,2.4,0,0,1,2.4,2.4v0a2.4,2.4,0,0,1-2.4,2.4h-.53a0,0,0,0,1,0,0v-4.8A0,0,0,0,1,581.53,837.22Z"/><path class="cls-64" d="M581.53,848.48h.53a2.4,2.4,0,0,1,2.4,2.4v0a2.4,2.4,0,0,1-2.4,2.4h-.53a0,0,0,0,1,0,0v-4.8A0,0,0,0,1,581.53,848.48Z"/><path class="cls-64" d="M581.53,859.74h.53a2.4,2.4,0,0,1,2.4,2.4v0a2.4,2.4,0,0,1-2.4,2.4h-.53a0,0,0,0,1,0,0v-4.8A0,0,0,0,1,581.53,859.74Z"/><rect class="cls-65" x="542.78" y="861.98" width="33.24" height="7.51"/><circle class="cls-66" cx="564.57" cy="864.4" r="5.84"/><rect class="cls-19" x="589.89" y="872.13" width="33.51" height="9.47" transform="translate(-442.36 685.79) rotate(-45)"/><rect class="cls-7" x="593.42" y="874.27" width="43.39" height="30.84" transform="translate(1679.18 1083.84) rotate(135)"/><rect class="cls-7" x="602.88" y="878.55" width="23.42" height="49.46" transform="translate(1687.88 1107.41) rotate(135)"/><path class="cls-7" d="M635.28,884h13.56a0,0,0,0,1,0,0v30.84a0,0,0,0,1,0,0H616.63a0,0,0,0,1,0,0V902.64A18.65,18.65,0,0,1,635.28,884Z" transform="translate(1716.14 1087.98) rotate(135)"/><path class="cls-7" d="M593.85,899.1l6.34-6.33L570.33,862.9a4.51,4.51,0,0,0-4.35-1.15h0a4.48,4.48,0,0,0-3.14,3.14h0a4.5,4.5,0,0,0,1.15,4.35Z"/><path class="cls-7" d="M622.28,912l6.34-6.34-28-28a4.47,4.47,0,0,0-4.34-1.16h0a4.49,4.49,0,0,0-3.15,3.15h0a4.47,4.47,0,0,0,1.16,4.34Z"/><path class="cls-7" d="M630.46,903.81l6.33-6.34-28-28a4.47,4.47,0,0,0-4.34-1.16h0a4.49,4.49,0,0,0-3.15,3.15h0a4.49,4.49,0,0,0,1.16,4.35Z"/><path class="cls-7" d="M635.05,891.62l6.34-6.34-23.2-23.2a4.49,4.49,0,0,0-4.35-1.16h0a4.51,4.51,0,0,0-3.15,3.15h0a4.49,4.49,0,0,0,1.16,4.35Z"/><path class="cls-67" d="M568,863.35l1.84,2a2.3,2.3,0,0,1-.07,3.19h0a2.3,2.3,0,0,1-3.19.07l-2-1.84Z"/><path class="cls-7" d="M586.46,888.34h0a8.77,8.77,0,0,1,8.77,8.77v24.49a0,0,0,0,1,0,0h-9.83a0,0,0,0,1,0,0V889.4A1.06,1.06,0,0,1,586.46,888.34Z" transform="translate(-467.01 682.47) rotate(-45)"/><path class="cls-7" d="M600.43,899.77h45.4a0,0,0,0,1,0,0v19a6.75,6.75,0,0,1-6.75,6.75H615a14.6,14.6,0,0,1-14.6-14.6V899.77A0,0,0,0,1,600.43,899.77Z" transform="translate(-462.82 707.92) rotate(-45)"/><rect class="cls-7" x="628.02" y="902.13" width="38.17" height="49.74" transform="translate(-465.95 729.08) rotate(-45)"/><rect class="cls-42" x="657.2" y="924.86" width="39.73" height="64.77" transform="translate(-478.57 759.13) rotate(-45)"/><rect class="cls-24" x="629.49" y="922.73" width="39.73" height="13.61" transform="translate(-467.09 731.41) rotate(-45)"/><line class="cls-68" x1="632.04" y1="937.21" x2="641.67" y2="946.84"/><line class="cls-68" x1="634.3" y1="934.96" x2="643.92" y2="944.59"/><line class="cls-68" x1="636.55" y1="932.71" x2="646.17" y2="942.34"/><line class="cls-68" x1="638.8" y1="930.46" x2="648.42" y2="940.09"/><line class="cls-68" x1="641.05" y1="928.21" x2="650.67" y2="937.84"/><line class="cls-68" x1="643.3" y1="925.96" x2="652.92" y2="935.58"/><line class="cls-68" x1="645.55" y1="923.71" x2="655.17" y2="933.33"/><line class="cls-68" x1="647.8" y1="921.46" x2="657.42" y2="931.08"/><line class="cls-68" x1="650.05" y1="919.21" x2="659.67" y2="928.83"/><line class="cls-68" x1="652.3" y1="916.96" x2="661.92" y2="926.58"/><line class="cls-68" x1="654.55" y1="914.71" x2="664.17" y2="924.33"/><line class="cls-68" x1="656.8" y1="912.46" x2="666.43" y2="922.08"/><line class="cls-69" x1="640.12" y1="948.39" x2="668.21" y2="920.3"/><line class="cls-70" x1="642.44" y1="950.72" x2="670.54" y2="922.62"/><path class="cls-67" d="M583,904.39a4.33,4.33,0,0,0-5.7-5.7"/></g><path class="cls-2" d="M944.22,407.15l160.31-89.07A438,438,0,0,0,877.84,121.46L812.27,292.81A254.92,254.92,0,0,1,944.22,407.15Z"/><g class="cls-71"><polygon class="cls-72" points="961.98 258.98 964.03 263.84 954.14 264.14 961.98 258.98"/><path class="cls-72" d="M962,259l-2.25-3.07-2-16.34a4.89,4.89,0,0,0-3.83,4.58l-.26,6-6.94-1.63a51.13,51.13,0,0,0-3.88-5.52,31.13,31.13,0,0,0-3.15-3.14,3.56,3.56,0,0,0-4.82.08l11.64,16.14,9.2,9.6Z"/><polygon class="cls-24" points="963.57 269.2 964.14 262.55 952.3 262.55 951.43 269.77 963.57 269.2"/><polygon class="cls-73" points="1048.8 304.15 1028.12 291.21 991.59 289.42 964.14 294.62 965.01 268.04 949.99 268.04 945.65 312.82 983.21 323.51 975.44 390.22 1042.07 362.52 1048.8 304.15"/><path class="cls-72" d="M1003.27,260.25l8.66-10.84L1035,261.5l-10.94,23.36-7,18.56a11.16,11.16,0,1,1-20.88-7.88l5.65-15-1.36-.44a4.13,4.13,0,0,1-1.74-5.56l6.86-13.09Z"/><path class="cls-74" d="M1005.21,262.23c2,0,3.79,1.73,5,3.78a2.45,2.45,0,0,0,4.31-.31l5.93-11.65c-1.42,0-3.67-.51-7.35-2.64a15.63,15.63,0,0,1-3.42-2.52c5.7-2.11,3.5-5.13,9.13-5.77l3-.82c1.3-.14,6,.07,6.43,1.15l8.88,4.66a6.23,6.23,0,0,1,2.63,8.42l-5.15,9.84a21,21,0,0,1-4,5.31l-3.77,7.2-3.87-6.4a4.54,4.54,0,0,1,0-4.18l1.17-2.24-4.83-2.53-6.71,13s-3.1,6.54-8.61,5.19l-6.18-2.09a1.92,1.92,0,0,1-1-2.75Z"/><path class="cls-73" d="M1008.63,255.08c-.26.49-2.49,4.77-1,5.55l.09.05c1.47.55,3.69-3.53,3.94-4,0-.1.19-.37.35-.7l15.34,8.16.45-.83-15.4-8.19c.62-1.47,1.25-3.49.29-4-1.46-.79-3.78,3.47-4,4m-.57,4.68c-.1-.44.24-2.06,1.4-4.24s2.31-3.37,2.74-3.53c.1.44-.24,2.06-1.4,4.24s-2.31,3.37-2.74,3.53"/><polygon class="cls-75" points="1024.24 291.15 1013.26 348.07 992.75 345.47 995.06 290.87 1024.24 291.15"/><path class="cls-76" d="M1022.42,289.88l5.7,1.33-5.49,21.51,6.45,1.65-14.44,57.76h-6.19c-1.12-26,9.26-59.56,14-82.25"/><polygon class="cls-77" points="1003.62 291.6 1008.88 291.8 1006.2 360.49 998.42 360.49 1003.62 291.6"/><path class="cls-76" d="M986.15,310.89l6.64-.41-.91-18.75-.29-2.6c2.07.28,4.24-.56,6.39-.7l-2.34,94.28H990.1Z"/><path class="cls-72" d="M991,350.38l-5.68-.29c-11.75-3.37-15.15-.5-20.21,2.31-1.43.79-5.93,2.24-5.19,4.4.55,1.62,2.66,1.59,4,1.29,3.73-.87,8.74-2.12,11.43-.77l9.92,4.91,5.4.09Z"/><polygon class="cls-24" points="995.25 362.32 988.32 362.32 988.32 347.3 997.18 347.3 995.25 362.32"/><path class="cls-78" d="M995.25,362.32h46.82a6.31,6.31,0,0,0,6.26-5.52l5.43-43.13a9.58,9.58,0,0,0-18.92-2.93l-5,27.48a7.11,7.11,0,0,1-6.74,5.81l-27.81,1Z"/><polygon class="cls-24" points="1025.97 290.58 1009.79 297.51 1006.33 291.44 1002.86 296.64 996.21 288.55 998.81 285.67 1006.33 290 1024.53 286.24 1025.97 290.58"/><rect class="cls-79" x="866.87" y="182.5" width="22.85" height="22.85"/><path class="cls-24" d="M876,198h4.52a7.31,7.31,0,0,1,7.32,7.31H868.72A7.33,7.33,0,0,1,876,198Z"/><circle class="cls-24" cx="878.3" cy="192.08" r="5.39"/><line class="cls-80" x1="899.06" y1="189.18" x2="926.64" y2="189.18"/><line class="cls-80" x1="899.06" y1="198.47" x2="937.04" y2="198.47"/><rect class="cls-79" x="866.87" y="217.98" width="22.85" height="22.85"/><path class="cls-24" d="M876,233.51h4.52a7.31,7.31,0,0,1,7.32,7.31H868.72a7.31,7.31,0,0,1,7.31-7.32Z"/><circle class="cls-24" cx="878.3" cy="227.56" r="5.39"/><rect class="cls-79" x="866.87" y="253.45" width="22.85" height="22.85"/><path class="cls-24" d="M876,269h4.52a7.32,7.32,0,0,1,7.32,7.32H868.72A7.33,7.33,0,0,1,876,269Z"/><circle class="cls-24" cx="878.3" cy="263.04" r="5.39"/><line class="cls-80" x1="899.06" y1="224.76" x2="926.64" y2="224.76"/><line class="cls-80" x1="899.06" y1="234.05" x2="937.04" y2="234.05"/><line class="cls-80" x1="899.06" y1="260.13" x2="926.64" y2="260.13"/><line class="cls-80" x1="899.06" y1="269.42" x2="937.04" y2="269.42"/></g></g></g></svg>